Khula-wt221.97.ufo
<glyph name="dollar" format="1">
  <advance width="1054"/>
  <unicode hex="0024"/>
  <outline>
    <contour>
      <point x="932" y="404" type="curve" smooth="yes"/>
      <point x="932" y="241"/>
      <point x="804" y="129"/>
      <point x="584" y="102" type="curve"/>
      <point x="584" y="-107" type="line"/>
      <point x="468" y="-107" type="line"/>
      <point x="468" y="94" type="line"/>
      <point x="401" y="94"/>
      <point x="335" y="99"/>
      <point x="272" y="109" type="curve" smooth="yes"/>
      <point x="209" y="120"/>
      <point x="158" y="134"/>
      <point x="118" y="153" type="curve"/>
      <point x="118" y="293" type="line"/>
      <point x="168" y="271"/>
      <point x="225" y="253"/>
      <point x="290" y="239" type="curve" smooth="yes"/>
      <point x="355" y="225"/>
      <point x="415" y="218"/>
      <point x="468" y="218" type="curve"/>
      <point x="468" y="614" type="line"/>
      <point x="345" y="653"/>
      <point x="258" y="698"/>
      <point x="209" y="749" type="curve" smooth="yes"/>
      <point x="160" y="801"/>
      <point x="135" y="868"/>
      <point x="135" y="949" type="curve" smooth="yes"/>
      <point x="135" y="1028"/>
      <point x="165" y="1092"/>
      <point x="226" y="1143" type="curve" smooth="yes"/>
      <point x="287" y="1194"/>
      <point x="368" y="1224"/>
      <point x="468" y="1235" type="curve"/>
      <point x="468" y="1399" type="line"/>
      <point x="584" y="1399" type="line"/>
      <point x="584" y="1237" type="line"/>
      <point x="695" y="1234"/>
      <point x="801" y="1211"/>
      <point x="904" y="1170" type="curve"/>
      <point x="857" y="1052" type="line"/>
      <point x="768" y="1087"/>
      <point x="677" y="1108"/>
      <point x="584" y="1115" type="curve"/>
      <point x="584" y="724" type="line"/>
      <point x="678" y="694"/>
      <point x="748" y="665"/>
      <point x="795" y="636" type="curve"/>
      <point x="890" y="580"/>
      <point x="932" y="509"/>
    </contour>
    <contour>
      <point x="779" y="392" type="curve" smooth="yes"/>
      <point x="779" y="435"/>
      <point x="766" y="470"/>
      <point x="739" y="497" type="curve" smooth="yes"/>
      <point x="712" y="524"/>
      <point x="661" y="550"/>
      <point x="584" y="577" type="curve"/>
      <point x="584" y="227" type="line"/>
      <point x="714" y="245"/>
      <point x="779" y="300"/>
    </contour>
    <contour>
      <point x="287" y="951" type="curve" smooth="yes"/>
      <point x="287" y="906"/>
      <point x="300" y="869"/>
      <point x="327" y="841" type="curve" smooth="yes"/>
      <point x="354" y="814"/>
      <point x="401" y="788"/>
      <point x="468" y="763" type="curve"/>
      <point x="468" y="1111" type="line"/>
      <point x="349" y="1092"/>
      <point x="287" y="1034"/>
    </contour>
  </outline>
</glyph>
<glyph name="F" format="1">
  <advance width="951"/>
  <unicode hex="0046"/>
  <outline>
    <contour>
      <point x="334" y="0" type="line"/>
      <point x="181" y="0" type="line"/>
      <point x="181" y="1316" type="line"/>
      <point x="914" y="1316" type="line"/>
      <point x="914" y="1180" type="line"/>
      <point x="334" y="1180" type="line"/>
      <point x="334" y="698" type="line"/>
      <point x="879" y="698" type="line"/>
      <point x="879" y="562" type="line"/>
      <point x="334" y="562" type="line"/>
    </contour>
  </outline>
</glyph>
<glyph name="M" format="1">
  <advance width="1664"/>
  <unicode hex="004D"/>
  <outline>
    <contour>
      <point x="763" y="0" type="line"/>
      <point x="317" y="1166" type="line"/>
      <point x="310" y="1166" type="line"/>
      <point x="318" y="1074"/>
      <point x="322" y="964"/>
      <point x="322" y="837" type="curve" smooth="yes"/>
      <point x="322" y="0" type="line"/>
      <point x="181" y="0" type="line"/>
      <point x="181" y="1316" type="line"/>
      <point x="411" y="1316" type="line"/>
      <point x="828" y="230" type="line"/>
      <point x="835" y="230" type="line"/>
      <point x="1255" y="1316" type="line"/>
      <point x="1484" y="1316" type="line"/>
      <point x="1484" y="0" type="line"/>
      <point x="1331" y="0" type="line"/>
      <point x="1331" y="848" type="line" smooth="yes"/>
      <point x="1331" y="945"/>
      <point x="1335" y="1051"/>
      <point x="1344" y="1165" type="curve"/>
      <point x="1336" y="1165" type="line"/>
      <point x="886" y="0" type="line"/>
    </contour>
  </outline>
</glyph>
<glyph name="grave" format="1">
  <advance width="1073"/>
  <unicode hex="0060"/>
  <outline>
    <contour>
      <point x="682" y="1241" type="line"/>
      <point x="673" y="1247"/>
      <point x="611" y="1256"/>
      <point x="593" y="1269" type="curve"/>
      <point x="531" y="1319"/>
      <point x="471" y="1370"/>
      <point x="415" y="1422" type="curve"/>
      <point x="373" y="1466"/>
      <point x="344" y="1503"/>
      <point x="328" y="1524" type="curve"/>
      <point x="414" y="1536" type="line"/>
      <point x="421" y="1527"/>
      <point x="533" y="1511"/>
      <point x="553" y="1490" type="curve"/>
      <point x="566" y="1467"/>
      <point x="601" y="1421"/>
      <point x="634" y="1377" type="curve" smooth="yes"/>
      <point x="669" y="1333"/>
      <point x="701" y="1288"/>
      <point x="734" y="1252" type="curve"/>
    </contour>
  </outline>
</glyph>
<glyph name="p" format="1">
  <advance width="1129"/>
  <unicode hex="0070"/>
  <outline>
    <contour>
      <point x="617" y="-18" type="curve" smooth="yes"/>
      <point x="489" y="-18"/>
      <point x="380" y="28"/>
      <point x="308" y="127" type="curve"/>
      <point x="297" y="127" type="line"/>
      <point x="304" y="69"/>
      <point x="308" y="14"/>
      <point x="308" y="-37" type="curve" smooth="yes"/>
      <point x="308" y="-443" type="line"/>
      <point x="158" y="-443" type="line"/>
      <point x="158" y="986" type="line"/>
      <point x="280" y="986" type="line"/>
      <point x="301" y="851" type="line"/>
      <point x="308" y="851" type="line"/>
      <point x="384" y="959"/>
      <point x="485" y="1004"/>
      <point x="617" y="1004" type="curve" smooth="yes"/>
      <point x="748" y="1004"/>
      <point x="849" y="959"/>
      <point x="920" y="870" type="curve" smooth="yes"/>
      <point x="991" y="781"/>
      <point x="1027" y="655"/>
      <point x="1027" y="494" type="curve" smooth="yes"/>
      <point x="1027" y="332"/>
      <point x="991" y="206"/>
      <point x="918" y="116" type="curve" smooth="yes"/>
      <point x="846" y="27"/>
      <point x="746" y="-18"/>
    </contour>
    <contour>
      <point x="596" y="877" type="curve" smooth="yes"/>
      <point x="395" y="877"/>
      <point x="311" y="771"/>
      <point x="308" y="527" type="curve" smooth="yes"/>
      <point x="308" y="494" type="line" smooth="yes"/>
      <point x="308" y="355"/>
      <point x="331" y="256"/>
      <point x="377" y="196" type="curve" smooth="yes"/>
      <point x="423" y="137"/>
      <point x="497" y="107"/>
      <point x="599" y="107" type="curve" smooth="yes"/>
      <point x="684" y="107"/>
      <point x="751" y="141"/>
      <point x="799" y="210" type="curve" smooth="yes"/>
      <point x="848" y="279"/>
      <point x="872" y="375"/>
      <point x="872" y="496" type="curve" smooth="yes"/>
      <point x="872" y="741"/>
      <point x="771" y="877"/>
    </contour>
  </outline>
</glyph>
<glyph name="uni02BC" format="1">
  <advance width="682"/>
  <unicode hex="02BC"/>
  <outline>
    <contour>
      <point x="0" y="0" type="line"/>
      <point x="682" y="0" type="line"/>
      <point x="682" y="20" type="line"/>
      <point x="0" y="20" type="line"/>
    </contour>
  </outline>
</glyph>
<glyph name="anusvaradeva" format="1">
  <advance width="0"/>
  <unicode hex="0902"/>
  <outline>
    <contour>
      <point x="-312" y="1676" type="curve" smooth="yes"/>
      <point x="-248" y="1676"/>
      <point x="-217" y="1636"/>
      <point x="-217" y="1575" type="curve" smooth="yes"/>
      <point x="-217" y="1515"/>
      <point x="-248" y="1473"/>
      <point x="-312" y="1473" type="curve" smooth="yes"/>
      <point x="-374" y="1473"/>
      <point x="-406" y="1514"/>
      <point x="-406" y="1575" type="curve" smooth="yes"/>
      <point x="-406" y="1636"/>
      <point x="-375" y="1676"/>
    </contour>
    <contour>
      <point x="49" y="8" type="move" name="x12"/>
    </contour>
    <contour>
      <point x="-424" y="1282" type="move" name="_mark0"/>
    </contour>
  </outline>
</glyph>
<glyph name="udeva" format="1">
  <advance width="1067"/>
  <unicode hex="0909"/>
  <outline>
    <contour>
      <point x="342" y="666" type="line"/>
      <point x="312" y="789" type="line"/>
      <point x="323" y="790" type="line"/>
      <point x="628" y="794"/>
      <point x="709" y="890"/>
      <point x="709" y="1013" type="curve" smooth="yes"/>
      <point x="709" y="1110"/>
      <point x="651" y="1173"/>
      <point x="546" y="1173" type="curve"/>
      <point x="582" y="1269" type="line"/>
      <point x="734" y="1269"/>
      <point x="843" y="1150"/>
      <point x="843" y="986" type="curve" smooth="yes"/>
      <point x="843" y="815"/>
      <point x="707" y="671"/>
      <point x="353" y="667" type="curve"/>
    </contour>
    <contour>
      <point x="632" y="785" type="line"/>
      <point x="813" y="691"/>
      <point x="917" y="570"/>
      <point x="917" y="408" type="curve" smooth="yes"/>
      <point x="917" y="216"/>
      <point x="763" y="91"/>
      <point x="564" y="91" type="curve" smooth="yes"/>
      <point x="403" y="91"/>
      <point x="273" y="132"/>
      <point x="96" y="263" type="curve"/>
      <point x="134" y="381" type="line"/>
      <point x="289" y="259"/>
      <point x="409" y="223"/>
      <point x="520" y="223" type="curve" smooth="yes"/>
      <point x="688" y="223"/>
      <point x="776" y="316"/>
      <point x="776" y="433" type="curve" smooth="yes"/>
      <point x="776" y="529"/>
      <point x="694" y="645"/>
      <point x="539" y="700" type="curve"/>
    </contour>
    <contour>
      <point x="-28" y="1166" type="line"/>
      <point x="-28" y="1278" type="line"/>
      <point x="1089" y="1278" type="line"/>
      <point x="1089" y="1166" type="line"/>
    </contour>
    <contour>
      <point x="743" y="1282" type="move" name="mark0"/>
    </contour>
    <contour>
      <point x="-89" y="8" type="move" name="x36"/>
    </contour>
  </outline>
</glyph>
<glyph name="rvocalicdeva" format="1">
  <advance width="1534"/>
  <unicode hex="090B"/>
  <outline>
    <contour>
      <point x="861" y="667" type="line"/>
      <point x="897" y="651"/>
      <point x="929" y="644"/>
      <point x="987" y="644" type="curve" smooth="yes"/>
      <point x="1066" y="644"/>
      <point x="1167" y="662"/>
      <point x="1247" y="736" type="curve"/>
      <point x="1204" y="670" type="line"/>
      <point x="1168" y="713"/>
      <point x="1154" y="737"/>
      <point x="1154" y="768" type="curve" smooth="yes"/>
      <point x="1154" y="804"/>
      <point x="1185" y="838"/>
      <point x="1248" y="838" type="curve" smooth="yes"/>
      <point x="1327" y="838"/>
      <point x="1402" y="804"/>
      <point x="1402" y="745" type="curve" smooth="yes"/>
      <point x="1402" y="663"/>
      <point x="1231" y="531"/>
      <point x="995" y="531" type="curve" smooth="yes"/>
      <point x="931" y="531"/>
      <point x="876" y="533"/>
      <point x="810" y="559" type="curve"/>
    </contour>
    <contour>
      <point x="1225" y="623" type="curve"/>
      <point x="1320" y="685" type="line"/>
      <point x="1403" y="570"/>
      <point x="1460" y="459"/>
      <point x="1460" y="364" type="curve" smooth="yes"/>
      <point x="1460" y="238"/>
      <point x="1384" y="137"/>
      <point x="1188" y="98" type="curve"/>
      <point x="1122" y="202" type="line"/>
      <point x="1279" y="235"/>
      <point x="1337" y="297"/>
      <point x="1337" y="389" type="curve" smooth="yes"/>
      <point x="1337" y="456"/>
      <point x="1304" y="520"/>
    </contour>
    <contour>
      <point x="-37" y="1166" type="line"/>
      <point x="-37" y="1278" type="line"/>
      <point x="1556" y="1278" type="line"/>
      <point x="1556" y="1166" type="line"/>
    </contour>
    <contour>
      <point x="857" y="484" type="line"/>
      <point x="278" y="182" type="line"/>
      <point x="205" y="290" type="line"/>
      <point x="791" y="587" type="line"/>
    </contour>
    <contour>
      <point x="114" y="801" type="line"/>
      <point x="200" y="833"/>
      <point x="291" y="856"/>
      <point x="382" y="856" type="curve" smooth="yes"/>
      <point x="480" y="856"/>
      <point x="602" y="804"/>
      <point x="815" y="666" type="curve"/>
      <point x="815" y="522" type="line"/>
      <point x="589" y="674"/>
      <point x="476" y="729"/>
      <point x="395" y="729" type="curve" smooth="yes"/>
      <point x="321" y="729"/>
      <point x="230" y="706"/>
      <point x="156" y="675" type="curve"/>
    </contour>
    <contour>
      <point x="764" y="1197" type="line"/>
      <point x="915" y="1197" type="line"/>
      <point x="915" y="0" type="line"/>
      <point x="764" y="0" type="line"/>
    </contour>
    <contour>
      <point x="828" y="1252" type="move" name="mark0"/>
    </contour>
  </outline>
</glyph>
<glyph name="lvocalicdeva" format="1">
  <advance width="1393"/>
  <unicode hex="090C"/>
  <outline>
    <contour>
      <point x="831" y="650" type="curve"/>
      <point x="746" y="563" type="line"/>
      <point x="653" y="694"/>
      <point x="564" y="760"/>
      <point x="436" y="760" type="curve" smooth="yes"/>
      <point x="316" y="760"/>
      <point x="234" y="667"/>
      <point x="234" y="554" type="curve" smooth="yes"/>
      <point x="234" y="433"/>
      <point x="290" y="323"/>
      <point x="482" y="162" type="curve"/>
      <point x="377" y="99" type="line"/>
      <point x="175" y="269"/>
      <point x="92" y="431"/>
      <point x="92" y="583" type="curve" smooth="yes"/>
      <point x="92" y="752"/>
      <point x="216" y="891"/>
      <point x="421" y="891" type="curve" smooth="yes"/>
      <point x="600" y="891"/>
      <point x="719" y="786"/>
    </contour>
    <contour>
      <point x="1404" y="1166" type="line"/>
      <point x="-37" y="1166" type="line"/>
      <point x="-37" y="1278" type="line"/>
      <point x="1404" y="1278" type="line"/>
    </contour>
    <contour>
      <point x="981" y="1197" type="line"/>
      <point x="1131" y="1197" type="line"/>
      <point x="1131" y="777" type="line"/>
      <point x="981" y="777" type="line"/>
    </contour>
    <contour>
      <point x="1183" y="315" type="curve"/>
      <point x="1102" y="253" type="line"/>
      <point x="1182" y="345"/>
      <point x="1223" y="434"/>
      <point x="1223" y="537" type="curve" smooth="yes"/>
      <point x="1223" y="639"/>
      <point x="1154" y="719"/>
      <point x="1039" y="719" type="curve" smooth="yes"/>
      <point x="900" y="719"/>
      <point x="791" y="589"/>
      <point x="741" y="384" type="curve"/>
      <point x="615" y="432" type="line"/>
      <point x="668" y="660"/>
      <point x="801" y="848"/>
      <point x="1031" y="849" type="curve" smooth="yes"/>
      <point x="1227" y="849"/>
      <point x="1354" y="703"/>
      <point x="1354" y="522" type="curve" smooth="yes"/>
      <point x="1354" y="417"/>
      <point x="1306" y="311"/>
      <point x="1238" y="224" type="curve"/>
      <point x="1087" y="224"/>
      <point x="1027" y="161"/>
      <point x="1027" y="90" type="curve" smooth="yes"/>
      <point x="1027" y="22"/>
      <point x="1082" y="-24"/>
      <point x="1181" y="-24" type="curve" smooth="yes"/>
      <point x="1238" y="-24"/>
      <point x="1283" y="-15"/>
      <point x="1357" y="18" type="curve"/>
      <point x="1377" y="-86" type="line"/>
      <point x="1307" y="-115"/>
      <point x="1249" y="-126"/>
      <point x="1177" y="-126" type="curve" smooth="yes"/>
      <point x="1014" y="-126"/>
      <point x="906" y="-34"/>
      <point x="906" y="92" type="curve" smooth="yes"/>
      <point x="906" y="214"/>
      <point x="1005" y="307"/>
    </contour>
    <contour>
      <point x="1011" y="1252" type="move" name="mark0"/>
    </contour>
  </outline>
</glyph>
<glyph name="jadeva" format="1">
  <advance width="1481"/>
  <unicode hex="091C"/>
  <outline>
    <contour>
      <point x="-50" y="1166" type="line"/>
      <point x="-50" y="1278" type="line"/>
      <point x="1493" y="1278" type="line"/>
      <point x="1493" y="1166" type="line"/>
    </contour>
    <contour>
      <point x="603" y="749" type="line"/>
      <point x="611" y="785" type="line"/>
      <point x="762" y="713"/>
      <point x="860" y="579"/>
      <point x="860" y="437" type="curve" smooth="yes"/>
      <point x="860" y="272"/>
      <point x="750" y="155"/>
      <point x="574" y="155" type="curve" smooth="yes"/>
      <point x="404" y="155"/>
      <point x="239" y="273"/>
      <point x="53" y="537" type="curve"/>
      <point x="131" y="643" type="line"/>
      <point x="296" y="396"/>
      <point x="428" y="293"/>
      <point x="538" y="293" type="curve" smooth="yes"/>
      <point x="655" y="293"/>
      <point x="722" y="358"/>
      <point x="722" y="466" type="curve" smooth="yes"/>
      <point x="722" y="599"/>
      <point x="604" y="708"/>
      <point x="419" y="762" type="curve"/>
      <point x="419" y="872" type="line"/>
      <point x="1120" y="872" type="line"/>
      <point x="1120" y="749" type="line"/>
    </contour>
    <contour>
      <point x="1094" y="1197" type="line"/>
      <point x="1245" y="1197" type="line"/>
      <point x="1245" y="0" type="line"/>
      <point x="1094" y="0" type="line"/>
    </contour>
  </outline>
</glyph>
<glyph name="ddhadeva" format="1">
  <advance width="1106"/>
  <unicode hex="0922"/>
  <outline>
    <contour>
      <point x="1126" y="1166" type="line"/>
      <point x="-59" y="1166" type="line"/>
      <point x="-59" y="1278" type="line"/>
      <point x="1126" y="1278" type="line"/>
    </contour>
    <contour>
      <point x="688" y="1196" type="line"/>
      <point x="834" y="1196" type="line"/>
      <point x="834" y="772" type="line"/>
      <point x="579" y="772" type="line"/>
      <point x="325" y="772"/>
      <point x="224" y="649"/>
      <point x="224" y="488" type="curve" smooth="yes"/>
      <point x="224" y="334"/>
      <point x="386" y="184"/>
      <point x="622" y="184" type="curve" smooth="yes"/>
      <point x="812" y="184"/>
      <point x="887" y="253"/>
      <point x="887" y="334" type="curve" smooth="yes"/>
      <point x="887" y="398"/>
      <point x="836" y="449"/>
      <point x="752" y="449" type="curve" smooth="yes"/>
      <point x="663" y="449"/>
      <point x="597" y="389"/>
      <point x="597" y="300" type="curve" smooth="yes"/>
      <point x="597" y="248"/>
      <point x="611" y="205"/>
      <point x="644" y="152" type="curve"/>
      <point x="528" y="139" type="line"/>
      <point x="488" y="204"/>
      <point x="475" y="257"/>
      <point x="475" y="330" type="curve" smooth="yes"/>
      <point x="475" y="443"/>
      <point x="573" y="556"/>
      <point x="737" y="556" type="curve" smooth="yes"/>
      <point x="906" y="556"/>
      <point x="1010" y="457"/>
      <point x="1010" y="324" type="curve" smooth="yes"/>
      <point x="1010" y="198"/>
      <point x="887" y="84"/>
      <point x="646" y="84" type="curve" smooth="yes"/>
      <point x="288" y="84"/>
      <point x="84" y="297"/>
      <point x="84" y="517" type="curve" smooth="yes"/>
      <point x="84" y="720"/>
      <point x="231" y="884"/>
      <point x="513" y="884" type="curve" smooth="yes"/>
      <point x="729" y="884" type="line"/>
      <point x="688" y="850" type="line"/>
    </contour>
    <contour>
      <point x="524" y="8" type="move" name="mark0"/>
    </contour>
    <contour>
      <point x="1172" y="8" type="move" name="x44"/>
    </contour>
    <contour>
      <point x="-156" y="8" type="move" name="x43"/>
    </contour>
  </outline>
</glyph>
<glyph name="bhadeva" format="1">
  <advance width="1317"/>
  <unicode hex="092D"/>
  <outline>
    <contour>
      <point x="391" y="1023" type="line"/>
      <point x="391" y="1145"/>
      <point x="335" y="1203"/>
      <point x="244" y="1203" type="curve" smooth="yes"/>
      <point x="164" y="1203"/>
      <point x="128" y="1148"/>
      <point x="127" y="1077" type="curve" smooth="yes"/>
      <point x="127" y="987"/>
      <point x="209" y="897"/>
      <point x="436" y="885" type="curve"/>
      <point x="409" y="787" type="line"/>
      <point x="156" y="799"/>
      <point x="-9" y="918"/>
      <point x="-9" y="1102" type="curve" smooth="yes"/>
      <point x="-9" y="1218"/>
      <point x="67" y="1322"/>
      <point x="236" y="1322" type="curve" smooth="yes"/>
      <point x="431" y="1322"/>
      <point x="541" y="1201"/>
      <point x="541" y="998" type="curve" smooth="yes"/>
      <point x="541" y="612" type="line"/>
      <point x="509" y="641" type="line"/>
      <point x="982" y="641" type="line"/>
      <point x="982" y="519" type="line"/>
      <point x="506" y="519" type="line"/>
      <point x="541" y="547" type="line"/>
      <point x="541" y="408" type="line"/>
      <point x="541" y="365"/>
      <point x="526" y="345"/>
      <point x="483" y="345" type="curve" smooth="yes"/>
      <point x="412" y="345"/>
      <point x="257" y="517"/>
      <point x="257" y="581" type="curve" smooth="yes"/>
      <point x="257" y="619"/>
      <point x="276" y="640"/>
      <point x="319" y="640" type="curve" smooth="yes"/>
      <point x="420" y="640" type="line"/>
      <point x="391" y="611" type="line"/>
    </contour>
    <contour>
      <point x="931" y="1197" type="line"/>
      <point x="1081" y="1197" type="line"/>
      <point x="1081" y="0" type="line"/>
      <point x="931" y="0" type="line"/>
    </contour>
    <contour>
      <point x="1329" y="1166" type="line"/>
      <point x="781" y="1166" type="line"/>
      <point x="781" y="1278" type="line"/>
      <point x="1329" y="1278" type="line"/>
    </contour>
  </outline>
</glyph>
<glyph name="madeva" format="1">
  <advance width="1216"/>
  <unicode hex="092E"/>
  <outline>
    <contour>
      <point x="-25" y="1166" type="line"/>
      <point x="-25" y="1278" type="line"/>
      <point x="1228" y="1278" type="line"/>
      <point x="1228" y="1166" type="line"/>
    </contour>
    <contour>
      <point x="238" y="1206" type="line"/>
      <point x="388" y="1206" type="line"/>
      <point x="388" y="612" type="line"/>
      <point x="356" y="641" type="line"/>
      <point x="887" y="641" type="line"/>
      <point x="887" y="519" type="line"/>
      <point x="353" y="519" type="line"/>
      <point x="388" y="547" type="line"/>
      <point x="388" y="408" type="line"/>
      <point x="388" y="365"/>
      <point x="373" y="345"/>
      <point x="330" y="345" type="curve" smooth="yes"/>
      <point x="259" y="345"/>
      <point x="104" y="517"/>
      <point x="104" y="581" type="curve" smooth="yes"/>
      <point x="104" y="619"/>
      <point x="123" y="640"/>
      <point x="166" y="640" type="curve" smooth="yes"/>
      <point x="267" y="640" type="line"/>
      <point x="238" y="611" type="line"/>
    </contour>
    <contour>
      <point x="831" y="1197" type="line"/>
      <point x="982" y="1197" type="line"/>
      <point x="982" y="0" type="line"/>
      <point x="831" y="0" type="line"/>
    </contour>
  </outline>
</glyph>
<glyph name="ssadeva" format="1">
  <advance width="1157"/>
  <unicode hex="0937"/>
  <outline>
    <contour>
      <point x="826" y="577" type="line"/>
      <point x="747" y="520" type="line"/>
      <point x="230" y="1151" type="line"/>
      <point x="308" y="1208" type="line"/>
    </contour>
    <component base="padeva"/>
  </outline>
</glyph>
<glyph name="uvowelsigndeva" format="1">
  <advance width="0"/>
  <unicode hex="0941"/>
  <outline>
    <contour>
      <point x="-601" y="-99" type="line"/>
      <point x="-513" y="-31"/>
      <point x="-433" y="13"/>
      <point x="-303" y="13" type="curve" smooth="yes"/>
      <point x="-142" y="13"/>
      <point x="-5" y="-102"/>
      <point x="-5" y="-270" type="curve" smooth="yes"/>
      <point x="-5" y="-442"/>
      <point x="-147" y="-536"/>
      <point x="-330" y="-536" type="curve" smooth="yes"/>
      <point x="-505" y="-536"/>
      <point x="-663" y="-476"/>
      <point x="-849" y="-344" type="curve"/>
      <point x="-807" y="-245" type="line"/>
      <point x="-619" y="-379"/>
      <point x="-474" y="-423"/>
      <point x="-365" y="-423" type="curve" smooth="yes"/>
      <point x="-220" y="-423"/>
      <point x="-129" y="-353"/>
      <point x="-129" y="-257" type="curve" smooth="yes"/>
      <point x="-129" y="-163"/>
      <point x="-208" y="-103"/>
      <point x="-306" y="-103" type="curve" smooth="yes"/>
      <point x="-395" y="-103"/>
      <point x="-472" y="-142"/>
      <point x="-539" y="-203" type="curve"/>
    </contour>
    <contour>
      <point x="49" y="8" type="move" name="x24"/>
    </contour>
    <contour>
      <point x="-424" y="8" type="move" name="_mark0"/>
    </contour>
  </outline>
</glyph>
<glyph name="eshortvowelsigndeva" format="1">
  <advance width="0"/>
  <unicode hex="0946"/>
  <outline>
    <contour>
      <point x="-388" y="1244" type="line"/>
      <point x="-388" y="1387" type="line"/>
      <point x="-388" y="1469"/>
      <point x="-428" y="1506"/>
      <point x="-499" y="1506" type="curve" smooth="yes"/>
      <point x="-573" y="1506"/>
      <point x="-647" y="1460"/>
      <point x="-756" y="1460" type="curve" smooth="yes"/>
      <point x="-869" y="1460"/>
      <point x="-947" y="1507"/>
      <point x="-1025" y="1597" type="curve"/>
      <point x="-967" y="1693" type="line"/>
      <point x="-883" y="1612"/>
      <point x="-832" y="1585"/>
      <point x="-762" y="1585" type="curve" smooth="yes"/>
      <point x="-672" y="1585"/>
      <point x="-582" y="1641"/>
      <point x="-466" y="1641" type="curve" smooth="yes"/>
      <point x="-340" y="1641"/>
      <point x="-248" y="1550"/>
      <point x="-248" y="1398" type="curve" smooth="yes"/>
      <point x="-248" y="1244" type="line"/>
    </contour>
    <contour>
      <point x="-365" y="1252" type="move" name="_mark0"/>
    </contour>
  </outline>
</glyph>
<glyph name="aivowelsigndeva" format="1">
  <advance width="0"/>
  <unicode hex="0948"/>
  <outline>
    <contour>
      <point x="-518" y="1244" type="line"/>
      <point x="-1029" y="1614" type="line"/>
      <point x="-926" y="1707" type="line"/>
      <point x="-330" y="1244" type="line"/>
    </contour>
    <contour>
      <point x="-357" y="1244" type="line"/>
      <point x="-603" y="1804" type="line"/>
      <point x="-471" y="1837" type="line"/>
      <point x="-224" y="1244" type="line"/>
    </contour>
    <contour>
      <point x="49" y="8" type="move" name="x27"/>
    </contour>
    <contour>
      <point x="-424" y="1282" type="move" name="_mark0"/>
    </contour>
  </outline>
</glyph>
<glyph name="udattadeva" format="1">
  <advance width="22"/>
  <unicode hex="0951"/>
  <outline>
    <contour>
      <point x="-191" y="1787" type="line"/>
      <point x="-191" y="1444" type="line"/>
      <point x="-354" y="1444" type="line"/>
      <point x="-354" y="1787" type="line"/>
    </contour>
    <contour>
      <point x="-365" y="1252" type="move" name="_mark0"/>
    </contour>
    <contour>
      <point x="11" y="-22" type="move" name="x4"/>
    </contour>
  </outline>
</glyph>
<glyph name="uni0953" format="1">
  <advance width="22"/>
  <unicode hex="0953"/>
  <outline>
    <contour>
      <point x="-196" y="1448" type="line"/>
      <point x="-321" y="1448" type="line"/>
      <point x="-374" y="1538"/>
      <point x="-487" y="1721"/>
      <point x="-541" y="1810" type="curve"/>
      <point x="-334" y="1810" type="line"/>
    </contour>
    <contour>
      <point x="-365" y="1252" type="move" name="_mark0"/>
    </contour>
    <contour>
      <point x="11" y="-22" type="move" name="x4"/>
    </contour>
  </outline>
</glyph>
<glyph name="uni0954" format="1">
  <advance width="22"/>
  <unicode hex="0954"/>
  <outline>
    <contour>
      <point x="-220" y="1810" type="line"/>
      <point x="-15" y="1810" type="line"/>
      <point x="-234" y="1448" type="line"/>
      <point x="-358" y="1448" type="line"/>
    </contour>
    <contour>
      <point x="-365" y="1252" type="move" name="_mark0"/>
    </contour>
    <contour>
      <point x="11" y="-22" type="move" name="x4"/>
    </contour>
  </outline>
</glyph>
<glyph name="lvocalicvowelsigndeva" format="1">
  <advance width="-1"/>
  <unicode hex="0962"/>
  <outline>
    <contour>
      <point x="-362" y="-252" type="curve"/>
      <point x="-413" y="-304" type="line"/>
      <point x="-464" y="-234"/>
      <point x="-511" y="-200"/>
      <point x="-579" y="-200" type="curve" smooth="yes"/>
      <point x="-645" y="-200"/>
      <point x="-685" y="-247"/>
      <point x="-685" y="-302" type="curve" smooth="yes"/>
      <point x="-685" y="-367"/>
      <point x="-653" y="-421"/>
      <point x="-549" y="-505" type="curve"/>
      <point x="-614" y="-546" type="line"/>
      <point x="-723" y="-456"/>
      <point x="-770" y="-371"/>
      <point x="-770" y="-291" type="curve" smooth="yes"/>
      <point x="-770" y="-198"/>
      <point x="-706" y="-123"/>
      <point x="-588" y="-123" type="curve" smooth="yes"/>
      <point x="-490" y="-123"/>
      <point x="-423" y="-179"/>
    </contour>
    <contour>
      <point x="-173" y="-424" type="curve"/>
      <point x="-222" y="-458" type="line"/>
      <point x="-181" y="-410"/>
      <point x="-157" y="-363"/>
      <point x="-157" y="-310" type="curve" smooth="yes"/>
      <point x="-157" y="-265"/>
      <point x="-190" y="-222"/>
      <point x="-249" y="-222" type="curve" smooth="yes"/>
      <point x="-324" y="-222"/>
      <point x="-383" y="-288"/>
      <point x="-411" y="-394" type="curve"/>
      <point x="-486" y="-367" type="line"/>
      <point x="-456" y="-247"/>
      <point x="-382" y="-146"/>
      <point x="-256" y="-146" type="curve" smooth="yes"/>
      <point x="-145" y="-145"/>
      <point x="-79" y="-224"/>
      <point x="-79" y="-319" type="curve" smooth="yes"/>
      <point x="-79" y="-375"/>
      <point x="-104" y="-433"/>
      <point x="-140" y="-481" type="curve"/>
      <point x="-222" y="-481"/>
      <point x="-252" y="-510"/>
      <point x="-252" y="-545" type="curve" smooth="yes"/>
      <point x="-252" y="-581"/>
      <point x="-227" y="-601"/>
      <point x="-174" y="-601" type="curve" smooth="yes"/>
      <point x="-142" y="-601"/>
      <point x="-118" y="-596"/>
      <point x="-77" y="-579" type="curve"/>
      <point x="-67" y="-640" type="line"/>
      <point x="-104" y="-657"/>
      <point x="-136" y="-662"/>
      <point x="-176" y="-662" type="curve" smooth="yes"/>
      <point x="-266" y="-662"/>
      <point x="-328" y="-613"/>
      <point x="-328" y="-544" type="curve" smooth="yes"/>
      <point x="-328" y="-481"/>
      <point x="-275" y="-428"/>
    </contour>
    <contour>
      <point x="-365" y="-22" type="move" name="_mark0"/>
    </contour>
  </outline>
</glyph>
<glyph name="threedeva" format="1">
  <advance width="893"/>
  <unicode hex="0969"/>
  <outline>
    <contour>
      <point x="352" y="215" type="line"/>
      <point x="257" y="-133" type="line"/>
      <point x="139" y="-105" type="line"/>
      <point x="231" y="233" type="line"/>
    </contour>
    <contour>
      <point x="230" y="656" type="curve"/>
      <point x="203" y="771" type="line"/>
      <point x="492" y="806"/>
      <point x="570" y="888"/>
      <point x="570" y="997" type="curve" smooth="yes"/>
      <point x="570" y="1097"/>
      <point x="497" y="1169"/>
      <point x="374" y="1169" type="curve" smooth="yes"/>
      <point x="274" y="1169"/>
      <point x="185" y="1140"/>
      <point x="95" y="1091" type="curve"/>
      <point x="56" y="1214" type="line"/>
      <point x="155" y="1261"/>
      <point x="255" y="1291"/>
      <point x="379" y="1291" type="curve" smooth="yes"/>
      <point x="585" y="1291"/>
      <point x="701" y="1153"/>
      <point x="701" y="988" type="curve" smooth="yes"/>
      <point x="701" y="826"/>
      <point x="582" y="689"/>
    </contour>
    <contour>
      <point x="758" y="455" type="curve" smooth="yes"/>
      <point x="758" y="281"/>
      <point x="611" y="158"/>
      <point x="334" y="158" type="curve" smooth="yes"/>
      <point x="146" y="158"/>
      <point x="93" y="204"/>
      <point x="93" y="273" type="curve" smooth="yes"/>
      <point x="93" y="326"/>
      <point x="165" y="388"/>
      <point x="240" y="388" type="curve" smooth="yes"/>
      <point x="311" y="388"/>
      <point x="365" y="343"/>
      <point x="357" y="247" type="curve"/>
      <point x="173" y="291" type="line"/>
      <point x="246" y="280"/>
      <point x="309" y="274"/>
      <point x="353" y="274" type="curve" smooth="yes"/>
      <point x="522" y="274"/>
      <point x="626" y="358"/>
      <point x="626" y="473" type="curve" smooth="yes"/>
      <point x="626" y="572"/>
      <point x="543" y="660"/>
      <point x="396" y="696" type="curve"/>
      <point x="504" y="768" type="line"/>
      <point x="639" y="727"/>
      <point x="758" y="613"/>
    </contour>
  </outline>
</glyph>
<glyph name="uni097D" format="1">
  <advance width="1052"/>
  <unicode hex="097D"/>
  <outline>
    <contour>
      <point x="520" y="601" type="line"/>
      <point x="520" y="2" type="line"/>
      <point x="369" y="2" type="line"/>
      <point x="369" y="683" type="line"/>
      <point x="381" y="683" type="line"/>
      <point x="609" y="688"/>
      <point x="768" y="806"/>
      <point x="768" y="959" type="curve" smooth="yes"/>
      <point x="768" y="1081"/>
      <point x="679" y="1167"/>
      <point x="545" y="1167" type="curve" smooth="yes"/>
      <point x="432" y="1167"/>
      <point x="331" y="1132"/>
      <point x="246" y="1080" type="curve"/>
      <point x="203" y="1195" type="line"/>
      <point x="291" y="1243"/>
      <point x="398" y="1285"/>
      <point x="545" y="1285" type="curve" smooth="yes"/>
      <point x="758" y="1285"/>
      <point x="902" y="1157"/>
      <point x="902" y="943" type="curve" smooth="yes"/>
      <point x="902" y="718"/>
      <point x="676" y="583"/>
      <point x="479" y="577" type="curve"/>
    </contour>
  </outline>
</glyph>
<glyph name="aivowelsignrephanusvaradeva" format="1">
  <advance width="0"/>
  <outline>
    <component base="aivowelsigndeva"/>
    <component base="rephanusvaradeva" xOffset="39"/>
    <contour>
      <point x="49" y="8" type="move" name="x50"/>
    </contour>
    <contour>
      <point x="-424" y="1282" type="move" name="_mark0"/>
    </contour>
  </outline>
</glyph>
<glyph name="aivowelsignrephdeva" format="1">
  <advance width="0"/>
  <outline>
    <component base="aivowelsigndeva"/>
    <component base="rephdeva" xOffset="37"/>
    <contour>
      <point x="49" y="8" type="move" name="x38"/>
    </contour>
    <contour>
      <point x="-424" y="1282" type="move" name="_mark0"/>
    </contour>
  </outline>
</glyph>
<glyph name="auanusvaradeva" format="1">
  <advance width="2108"/>
  <outline>
    <contour>
      <point x="0" y="0" type="line"/>
      <point x="2108" y="0" type="line"/>
      <point x="2108" y="20" type="line"/>
      <point x="0" y="20" type="line"/>
    </contour>
  </outline>
</glyph>
<glyph name="candrabindusmalldeva" format="1">
  <advance width="0"/>
  <outline>
    <contour>
      <point x="-355" y="1807" type="curve" smooth="yes"/>
      <point x="-333" y="1834"/>
      <point x="-304" y="1843"/>
      <point x="-277" y="1830" type="curve" smooth="yes"/>
      <point x="-250" y="1817"/>
      <point x="-240" y="1778"/>
      <point x="-262" y="1751" type="curve" smooth="yes"/>
      <point x="-283" y="1725"/>
      <point x="-313" y="1716"/>
      <point x="-340" y="1729" type="curve" smooth="yes"/>
      <point x="-368" y="1742"/>
      <point x="-377" y="1781"/>
    </contour>
    <contour>
      <point x="57" y="1743" type="line"/>
      <point x="-6" y="1566"/>
      <point x="-108" y="1456"/>
      <point x="-304" y="1456" type="curve" smooth="yes"/>
      <point x="-489" y="1456"/>
      <point x="-597" y="1582"/>
      <point x="-676" y="1742" type="curve"/>
      <point x="-599" y="1812" type="line"/>
      <point x="-532" y="1672"/>
      <point x="-463" y="1567"/>
      <point x="-303" y="1567" type="curve" smooth="yes"/>
      <point x="-143" y="1567"/>
      <point x="-83" y="1674"/>
      <point x="-32" y="1812" type="curve"/>
    </contour>
    <contour>
      <point x="-365" y="1252" type="move" name="_mark0"/>
    </contour>
  </outline>
</glyph>
<glyph name="chaaltdeva" format="1">
  <advance width="1542"/>
  <outline>
    <contour>
      <point x="0" y="0" type="line"/>
      <point x="1542" y="0" type="line"/>
      <point x="1542" y="20" type="line"/>
      <point x="0" y="20" type="line"/>
    </contour>
  </outline>
</glyph>
<glyph name="chanuktadeva" format="1">
  <advance width="1451"/>
  <outline>
    <component base="nuktadeva" xOffset="1518" yOffset="11"/>
    <component base="chadeva"/>
    <contour>
      <point x="996" y="1274" type="move" name="mark0"/>
    </contour>
  </outline>
</glyph>
<glyph name="dabhaaltdeva" format="1">
  <advance width="1798"/>
  <outline>
    <contour>
      <point x="0" y="0" type="line"/>
      <point x="1798" y="0" type="line"/>
      <point x="1798" y="20" type="line"/>
      <point x="0" y="20" type="line"/>
    </contour>
  </outline>
</glyph>
<glyph name="dadadeva" format="1">
  <advance width="1056"/>
  <outline>
    <contour>
      <point x="802" y="-45" type="line"/>
      <point x="915" y="0" type="line"/>
      <point x="1088" y="-354" type="line"/>
      <point x="972" y="-396" type="line"/>
    </contour>
    <contour>
      <point x="1144" y="1166" type="line"/>
      <point x="-46" y="1166" type="line"/>
      <point x="-46" y="1278" type="line"/>
      <point x="1144" y="1278" type="line"/>
    </contour>
    <contour>
      <point x="371" y="251" type="curve" smooth="yes"/>
      <point x="371" y="115"/>
      <point x="508" y="11"/>
      <point x="675" y="11" type="curve" smooth="yes"/>
      <point x="727" y="11"/>
      <point x="779" y="16"/>
      <point x="869" y="53" type="curve"/>
      <point x="786" y="-13" type="line"/>
      <point x="758" y="35"/>
      <point x="745" y="80"/>
      <point x="745" y="106" type="curve" smooth="yes"/>
      <point x="745" y="141"/>
      <point x="773" y="170"/>
      <point x="829" y="170" type="curve" smooth="yes"/>
      <point x="962" y="170"/>
      <point x="1049" y="118"/>
      <point x="1049" y="65" type="curve" smooth="yes"/>
      <point x="1049" y="-10"/>
      <point x="896" y="-101"/>
      <point x="687" y="-101" type="curve" smooth="yes"/>
      <point x="411" y="-101"/>
      <point x="231" y="59"/>
      <point x="231" y="274" type="curve" smooth="yes"/>
      <point x="231" y="471"/>
      <point x="413" y="593"/>
      <point x="645" y="592" type="curve" smooth="yes"/>
      <point x="765" y="592"/>
      <point x="831" y="573"/>
      <point x="914" y="544" type="curve"/>
      <point x="887" y="439" type="line"/>
      <point x="810" y="462"/>
      <point x="768" y="474"/>
      <point x="662" y="474" type="curve" smooth="yes"/>
      <point x="482" y="474"/>
      <point x="371" y="388"/>
    </contour>
    <contour>
      <point x="479" y="534" type="curve"/>
      <point x="395" y="451" type="line"/>
      <point x="240" y="514"/>
      <point x="162" y="616"/>
      <point x="162" y="736" type="curve" smooth="yes"/>
      <point x="162" y="850"/>
      <point x="248" y="950"/>
      <point x="444" y="950" type="curve" smooth="yes"/>
      <point x="768" y="950" type="line"/>
      <point x="722" y="904" type="line"/>
      <point x="722" y="1202" type="line"/>
      <point x="868" y="1202" type="line"/>
      <point x="868" y="839" type="line"/>
      <point x="476" y="839" type="line"/>
      <point x="349" y="839"/>
      <point x="301" y="785"/>
      <point x="301" y="710" type="curve" smooth="yes"/>
      <point x="301" y="636"/>
      <point x="357" y="576"/>
    </contour>
    <contour>
      <point x="893" y="-22" type="move" name="mark0"/>
    </contour>
  </outline>
</glyph>
<glyph name="dadhayadeva" format="1">
  <advance width="2068"/>
  <outline>
    <contour>
      <point x="744" y="250" type="line"/>
      <point x="612" y="183"/>
      <point x="579" y="99"/>
      <point x="578" y="32" type="curve" smooth="yes"/>
      <point x="578" y="-56"/>
      <point x="638" y="-114"/>
      <point x="739" y="-114" type="curve" smooth="yes"/>
      <point x="893" y="-113"/>
      <point x="1022" y="14"/>
      <point x="1055" y="211" type="curve"/>
      <point x="1156" y="80" type="line"/>
      <point x="1085" y="-94"/>
      <point x="943" y="-227"/>
      <point x="752" y="-227" type="curve" smooth="yes"/>
      <point x="571" y="-227"/>
      <point x="453" y="-121"/>
      <point x="453" y="35" type="curve" smooth="yes"/>
      <point x="453" y="135"/>
      <point x="494" y="236"/>
      <point x="656" y="331" type="curve"/>
    </contour>
    <contour>
      <point x="-26" y="1166" type="line"/>
      <point x="-26" y="1278" type="line"/>
      <point x="2083" y="1278" type="line"/>
      <point x="2083" y="1166" type="line"/>
    </contour>
    <contour>
      <point x="931" y="156" type="curve" smooth="yes"/>
      <point x="656" y="156"/>
      <point x="469" y="332"/>
      <point x="469" y="547" type="curve" smooth="yes"/>
      <point x="469" y="732"/>
      <point x="618" y="884"/>
      <point x="897" y="884" type="curve" smooth="yes"/>
      <point x="1090" y="884" type="line"/>
      <point x="1048" y="836" type="line"/>
      <point x="1048" y="1212" type="line"/>
      <point x="1194" y="1212" type="line"/>
      <point x="1194" y="766" type="line"/>
      <point x="960" y="766" type="line"/>
      <point x="706" y="766"/>
      <point x="613" y="651"/>
      <point x="613" y="514" type="curve" smooth="yes"/>
      <point x="613" y="383"/>
      <point x="751" y="268"/>
      <point x="918" y="268" type="curve" smooth="yes"/>
      <point x="970" y="268"/>
      <point x="1022" y="273"/>
      <point x="1112" y="311" type="curve"/>
      <point x="1029" y="244" type="line"/>
      <point x="1001" y="292"/>
      <point x="989" y="337"/>
      <point x="989" y="363" type="curve" smooth="yes"/>
      <point x="989" y="398"/>
      <point x="1016" y="427"/>
      <point x="1072" y="427" type="curve" smooth="yes"/>
      <point x="1205" y="427"/>
      <point x="1292" y="375"/>
      <point x="1292" y="323" type="curve" smooth="yes"/>
      <point x="1292" y="247"/>
      <point x="1148" y="156"/>
    </contour>
    <contour>
      <point x="534" y="154" type="line"/>
      <point x="480" y="120"/>
      <point x="416" y="102"/>
      <point x="327" y="102" type="curve" smooth="yes"/>
      <point x="161" y="102"/>
      <point x="41" y="208"/>
      <point x="41" y="352" type="curve" smooth="yes"/>
      <point x="41" y="446"/>
      <point x="79" y="530"/>
      <point x="172" y="606" type="curve"/>
      <point x="261" y="534" type="line"/>
      <point x="198" y="475"/>
      <point x="173" y="418"/>
      <point x="173" y="357" type="curve" smooth="yes"/>
      <point x="173" y="269"/>
      <point x="239" y="207"/>
      <point x="345" y="207" type="curve" smooth="yes"/>
      <point x="441" y="208"/>
      <point x="511" y="235"/>
      <point x="590" y="279" type="curve"/>
    </contour>
    <contour>
      <point x="1139" y="249" type="line"/>
      <point x="1206" y="60"/>
      <point x="1313" y="-4"/>
      <point x="1435" y="-4" type="curve" smooth="yes"/>
      <point x="1550" y="-4"/>
      <point x="1647" y="51"/>
      <point x="1731" y="152" type="curve"/>
      <point x="1731" y="-37" type="line"/>
      <point x="1657" y="-91"/>
      <point x="1572" y="-128"/>
      <point x="1461" y="-128" type="curve" smooth="yes"/>
      <point x="1291" y="-128"/>
      <point x="1132" y="-36"/>
      <point x="1036" y="206" type="curve"/>
    </contour>
    <contour>
      <point x="1682" y="1197" type="line"/>
      <point x="1833" y="1197" type="line"/>
      <point x="1833" y="-362" type="line"/>
      <point x="1682" y="-362" type="line"/>
    </contour>
  </outline>
</glyph>
<glyph name="damadeva" format="1">
  <advance width="1580"/>
  <outline>
    <contour>
      <point x="1195" y="1197" type="line"/>
      <point x="1346" y="1197" type="line"/>
      <point x="1346" y="0" type="line"/>
      <point x="1195" y="0" type="line"/>
    </contour>
    <contour>
      <point x="1251" y="375" type="line"/>
      <point x="1251" y="256" type="line"/>
      <point x="808" y="256" type="line"/>
      <point x="843" y="283" type="line"/>
      <point x="843" y="156" type="line"/>
      <point x="843" y="113"/>
      <point x="828" y="92"/>
      <point x="785" y="92" type="curve" smooth="yes"/>
      <point x="713" y="92"/>
      <point x="572" y="258"/>
      <point x="572" y="316" type="curve" smooth="yes"/>
      <point x="572" y="354"/>
      <point x="589" y="375"/>
      <point x="634" y="375" type="curve" smooth="yes"/>
    </contour>
    <contour>
      <point x="1595" y="1166" type="line"/>
      <point x="-96" y="1166" type="line"/>
      <point x="-96" y="1278" type="line"/>
      <point x="1595" y="1278" type="line"/>
    </contour>
    <contour>
      <point x="631" y="1202" type="line"/>
      <point x="777" y="1202" type="line"/>
      <point x="777" y="843" type="line"/>
      <point x="403" y="843" type="line"/>
      <point x="274" y="843"/>
      <point x="232" y="802"/>
      <point x="232" y="732" type="curve" smooth="yes"/>
      <point x="232" y="666"/>
      <point x="291" y="624"/>
      <point x="376" y="624" type="curve" smooth="yes"/>
      <point x="545" y="624" type="line"/>
      <point x="746" y="624"/>
      <point x="841" y="514"/>
      <point x="842" y="369" type="curve" smooth="yes"/>
      <point x="843" y="311" type="line"/>
      <point x="704" y="308" type="line"/>
      <point x="704" y="373" type="line"/>
      <point x="704" y="457"/>
      <point x="650" y="508"/>
      <point x="531" y="508" type="curve" smooth="yes"/>
      <point x="369" y="508" type="line"/>
      <point x="189" y="508"/>
      <point x="96" y="621"/>
      <point x="96" y="744" type="curve" smooth="yes"/>
      <point x="96" y="872"/>
      <point x="182" y="954"/>
      <point x="376" y="954" type="curve" smooth="yes"/>
      <point x="677" y="954" type="line"/>
      <point x="631" y="909" type="line"/>
    </contour>
  </outline>
</glyph>
<glyph name="danuktadeva" format="1">
  <advance width="1056"/>
  <outline>
    <component base="nuktadeva" xOffset="1106" yOffset="118"/>
    <component base="dadeva"/>
    <contour>
      <point x="872" y="0" type="move" name="mark0"/>
    </contour>
  </outline>
</glyph>
<glyph name="darvocalicdeva" format="1">
  <advance width="1056"/>
  <outline>
    <contour>
      <point x="-31" y="1166" type="line"/>
      <point x="-31" y="1278" type="line"/>
      <point x="1064" y="1278" type="line"/>
      <point x="1064" y="1166" type="line"/>
    </contour>
    <contour>
      <point x="563" y="156" type="curve" smooth="yes"/>
      <point x="289" y="156"/>
      <point x="102" y="332"/>
      <point x="102" y="547" type="curve" smooth="yes"/>
      <point x="102" y="732"/>
      <point x="251" y="884"/>
      <point x="530" y="884" type="curve" smooth="yes"/>
      <point x="722" y="884" type="line"/>
      <point x="681" y="836" type="line"/>
      <point x="681" y="1212" type="line"/>
      <point x="827" y="1212" type="line"/>
      <point x="827" y="766" type="line"/>
      <point x="593" y="766" type="line"/>
      <point x="339" y="766"/>
      <point x="246" y="651"/>
      <point x="246" y="514" type="curve" smooth="yes"/>
      <point x="246" y="383"/>
      <point x="384" y="268"/>
      <point x="551" y="268" type="curve" smooth="yes"/>
      <point x="603" y="268"/>
      <point x="655" y="273"/>
      <point x="745" y="311" type="curve"/>
      <point x="662" y="244" type="line"/>
      <point x="634" y="292"/>
      <point x="621" y="337"/>
      <point x="621" y="363" type="curve" smooth="yes"/>
      <point x="621" y="398"/>
      <point x="649" y="427"/>
      <point x="705" y="427" type="curve" smooth="yes"/>
      <point x="838" y="427"/>
      <point x="925" y="375"/>
      <point x="925" y="323" type="curve" smooth="yes"/>
      <point x="925" y="247"/>
      <point x="781" y="156"/>
    </contour>
    <contour>
      <point x="968" y="-104" type="line"/>
      <point x="966" y="-119" type="line"/>
      <point x="957" y="-119"/>
      <point x="876" y="-119"/>
      <point x="867" y="-119" type="curve"/>
      <point x="739" y="-119"/>
      <point x="676" y="-194"/>
      <point x="676" y="-262" type="curve" smooth="yes"/>
      <point x="676" y="-330"/>
      <point x="731" y="-379"/>
      <point x="832" y="-379" type="curve" smooth="yes"/>
      <point x="889" y="-379"/>
      <point x="935" y="-370"/>
      <point x="1011" y="-338" type="curve"/>
      <point x="1031" y="-441" type="line"/>
      <point x="955" y="-470"/>
      <point x="904" y="-481"/>
      <point x="832" y="-481" type="curve" smooth="yes"/>
      <point x="669" y="-481"/>
      <point x="554" y="-390"/>
      <point x="554" y="-251" type="curve" smooth="yes"/>
      <point x="554" y="-122"/>
      <point x="667" y="-29"/>
      <point x="825" y="-26" type="curve"/>
      <point x="801" y="-41" type="line"/>
      <point x="678" y="212" type="line"/>
      <point x="791" y="257" type="line"/>
    </contour>
    <contour>
      <point x="630" y="1252" type="move" name="mark0"/>
    </contour>
  </outline>
</glyph>
<glyph name="dayaprehalfdeva" format="1">
  <advance width="900"/>
  <outline>
    <contour>
      <point x="406" y="1214" type="line"/>
      <point x="556" y="1214" type="line"/>
      <point x="556" y="949" type="line"/>
      <point x="406" y="949" type="line"/>
    </contour>
    <contour>
      <point x="686" y="556" type="line"/>
      <point x="676" y="555" type="line"/>
      <point x="450" y="552"/>
      <point x="381" y="473"/>
      <point x="381" y="380" type="curve" smooth="yes"/>
      <point x="381" y="293"/>
      <point x="463" y="226"/>
      <point x="585" y="227" type="curve" smooth="yes"/>
      <point x="753" y="227"/>
      <point x="893" y="321"/>
      <point x="1091" y="542" type="curve"/>
      <point x="1180" y="442" type="line"/>
      <point x="1019" y="268"/>
      <point x="850" y="114"/>
      <point x="605" y="114" type="curve" smooth="yes"/>
      <point x="386" y="114"/>
      <point x="246" y="241"/>
      <point x="246" y="399" type="curve" smooth="yes"/>
      <point x="246" y="527"/>
      <point x="354" y="662"/>
      <point x="637" y="662" type="curve" smooth="yes"/>
      <point x="648" y="662" type="line"/>
    </contour>
    <contour>
      <point x="368" y="516" type="line"/>
      <point x="170" y="537"/>
      <point x="42" y="655"/>
      <point x="42" y="797" type="curve" smooth="yes"/>
      <point x="42" y="940"/>
      <point x="169" y="1025"/>
      <point x="358" y="1025" type="curve" smooth="yes"/>
      <point x="478" y="1025"/>
      <point x="471" y="1025"/>
      <point x="556" y="1022" type="curve"/>
      <point x="556" y="924" type="line"/>
      <point x="515" y="924"/>
      <point x="470" y="924"/>
      <point x="399" y="924" type="curve" smooth="yes"/>
      <point x="255" y="924"/>
      <point x="187" y="867"/>
      <point x="187" y="776" type="curve" smooth="yes"/>
      <point x="187" y="695"/>
      <point x="284" y="606"/>
      <point x="481" y="605" type="curve"/>
    </contour>
    <contour>
      <point x="1198" y="1166" type="line"/>
      <point x="-56" y="1166" type="line"/>
      <point x="-56" y="1278" type="line"/>
      <point x="1198" y="1278" type="line"/>
    </contour>
  </outline>
</glyph>
<glyph name="ddaddhadeva" format="1">
  <advance width="1054"/>
  <outline>
    <contour>
      <point x="634" y="276" type="line"/>
      <point x="769" y="276" type="line"/>
      <point x="769" y="-29" type="line"/>
      <point x="555" y="-29" type="line"/>
      <point x="340" y="-29"/>
      <point x="259" y="-116"/>
      <point x="259" y="-248" type="curve" smooth="yes"/>
      <point x="259" y="-378"/>
      <point x="400" y="-502"/>
      <point x="592" y="-502" type="curve" smooth="yes"/>
      <point x="753" y="-502"/>
      <point x="816" y="-444"/>
      <point x="816" y="-377" type="curve" smooth="yes"/>
      <point x="816" y="-324"/>
      <point x="774" y="-285"/>
      <point x="703" y="-285" type="curve" smooth="yes"/>
      <point x="628" y="-285"/>
      <point x="575" y="-332"/>
      <point x="575" y="-406" type="curve" smooth="yes"/>
      <point x="575" y="-449"/>
      <point x="588" y="-488"/>
      <point x="615" y="-532" type="curve"/>
      <point x="509" y="-541" type="line"/>
      <point x="474" y="-487"/>
      <point x="463" y="-442"/>
      <point x="463" y="-380" type="curve" smooth="yes"/>
      <point x="463" y="-286"/>
      <point x="544" y="-192"/>
      <point x="692" y="-192" type="curve" smooth="yes"/>
      <point x="841" y="-192"/>
      <point x="929" y="-274"/>
      <point x="929" y="-385" type="curve" smooth="yes"/>
      <point x="929" y="-491"/>
      <point x="820" y="-590"/>
      <point x="612" y="-590" type="curve" smooth="yes"/>
      <point x="305" y="-590"/>
      <point x="130" y="-408"/>
      <point x="130" y="-224" type="curve" smooth="yes"/>
      <point x="130" y="-58"/>
      <point x="253" y="69"/>
      <point x="498" y="69" type="curve" smooth="yes"/>
      <point x="671" y="69" type="line"/>
      <point x="634" y="40" type="line"/>
    </contour>
    <contour>
      <point x="683" y="1222" type="line"/>
      <point x="824" y="1222" type="line"/>
      <point x="824" y="896" type="line"/>
      <point x="465" y="896" type="line"/>
      <point x="348" y="896"/>
      <point x="313" y="854"/>
      <point x="313" y="783" type="curve" smooth="yes"/>
      <point x="313" y="724"/>
      <point x="362" y="676"/>
      <point x="447" y="643" type="curve"/>
      <point x="374" y="647" type="line"/>
      <point x="480" y="694"/>
      <point x="543" y="707"/>
      <point x="621" y="707" type="curve" smooth="yes"/>
      <point x="802" y="707"/>
      <point x="916" y="607"/>
      <point x="916" y="462" type="curve" smooth="yes"/>
      <point x="916" y="309"/>
      <point x="782" y="215"/>
      <point x="569" y="215" type="curve" smooth="yes"/>
      <point x="425" y="215"/>
      <point x="306" y="252"/>
      <point x="135" y="346" type="curve"/>
      <point x="158" y="458" type="line"/>
      <point x="323" y="359"/>
      <point x="447" y="319"/>
      <point x="556" y="319" type="curve" smooth="yes"/>
      <point x="695" y="319"/>
      <point x="789" y="381"/>
      <point x="789" y="465" type="curve" smooth="yes"/>
      <point x="789" y="549"/>
      <point x="730" y="595"/>
      <point x="616" y="595" type="curve" smooth="yes"/>
      <point x="539" y="595"/>
      <point x="488" y="578"/>
      <point x="412" y="541" type="curve"/>
      <point x="402" y="541" type="line"/>
      <point x="245" y="616"/>
      <point x="185" y="708"/>
      <point x="185" y="809" type="curve" smooth="yes"/>
      <point x="185" y="917"/>
      <point x="263" y="998"/>
      <point x="439" y="998" type="curve" smooth="yes"/>
      <point x="728" y="998" type="line"/>
      <point x="683" y="957" type="line"/>
    </contour>
    <contour>
      <point x="1073" y="1166" type="line"/>
      <point x="-20" y="1166" type="line"/>
      <point x="-20" y="1278" type="line"/>
      <point x="1073" y="1278" type="line"/>
    </contour>
    <contour>
      <point x="968" y="1252" type="move" name="mark0"/>
    </contour>
  </outline>
</glyph>
<glyph name="ddaradeva" format="1">
  <advance width="1143"/>
  <outline>
    <component base="vattudeva" xOffset="1122" yOffset="-4"/>
    <component base="ddadeva"/>
    <contour>
      <point x="990" y="1274" type="move" name="mark0"/>
    </contour>
  </outline>
</glyph>
<glyph name="ddhanuktaraprehalfUIdeva" format="1">
  <advance width="1244"/>
  <outline>
    <contour>
      <point x="0" y="0" type="line"/>
      <point x="1244" y="0" type="line"/>
      <point x="1244" y="20" type="line"/>
      <point x="0" y="20" type="line"/>
    </contour>
  </outline>
</glyph>
<glyph name="ecandravowelsignrephdeva" format="1">
  <advance width="15"/>
  <outline>
    <contour>
      <point x="0" y="0" type="line"/>
      <point x="15" y="0" type="line"/>
      <point x="15" y="20" type="line"/>
      <point x="0" y="20" type="line"/>
    </contour>
  </outline>
</glyph>
<glyph name="ghaprehalfdeva" format="1">
  <advance width="815"/>
  <outline>
    <contour>
      <point x="447" y="753" type="line"/>
      <point x="236" y="806"/>
      <point x="148" y="926"/>
      <point x="148" y="1069" type="curve" smooth="yes"/>
      <point x="148" y="1131"/>
      <point x="162" y="1184"/>
      <point x="199" y="1240" type="curve"/>
      <point x="345" y="1207" type="line"/>
      <point x="305" y="1146"/>
      <point x="295" y="1110"/>
      <point x="295" y="1054" type="curve" smooth="yes"/>
      <point x="295" y="961"/>
      <point x="354" y="871"/>
      <point x="568" y="841" type="curve"/>
    </contour>
    <contour>
      <point x="-38" y="1166" type="line"/>
      <point x="-38" y="1278" type="line"/>
      <point x="962" y="1278" type="line"/>
      <point x="962" y="1166" type="line"/>
    </contour>
    <contour>
      <point x="812" y="763" type="curve"/>
      <point x="847" y="703" type="line"/>
      <point x="633" y="666"/>
      <point x="536" y="563"/>
      <point x="480" y="466" type="curve" smooth="yes"/>
      <point x="416" y="372"/>
      <point x="457" y="357"/>
      <point x="552" y="402" type="curve" smooth="yes"/>
      <point x="665" y="442"/>
      <point x="799" y="541"/>
      <point x="978" y="638" type="curve"/>
      <point x="979" y="638"/>
      <point x="1018" y="590"/>
      <point x="1019" y="590" type="curve"/>
      <point x="890" y="480"/>
      <point x="810" y="363"/>
      <point x="688" y="363" type="curve" smooth="yes"/>
      <point x="544" y="363"/>
      <point x="439" y="452"/>
      <point x="439" y="590" type="curve" smooth="yes"/>
      <point x="412" y="700"/>
      <point x="474" y="799"/>
      <point x="682" y="783" type="curve" smooth="yes"/>
      <point x="682" y="772"/>
      <point x="701" y="765"/>
      <point x="716" y="765" type="curve"/>
      <point x="747" y="765"/>
      <point x="794" y="730"/>
    </contour>
  </outline>
</glyph>
<glyph name="gharadeva" format="1">
  <advance width="1361"/>
  <outline>
    <contour>
      <point x="1046" y="373" type="line"/>
      <point x="342" y="-48" type="line"/>
      <point x="266" y="57" type="line"/>
      <point x="975" y="471" type="line"/>
    </contour>
    <component base="ghadeva"/>
  </outline>
</glyph>
<glyph name="hanuktaudeva" format="1">
  <advance width="1179"/>
  <outline>
    <contour>
      <point x="0" y="0" type="line"/>
      <point x="1179" y="0" type="line"/>
      <point x="1179" y="20" type="line"/>
      <point x="0" y="20" type="line"/>
    </contour>
  </outline>
</glyph>
<glyph name="haprehalfdeva" format="1">
  <advance width="934"/>
  <outline>
    <contour>
      <point x="606" y="619" type="curve" smooth="yes"/>
      <point x="1137" y="619" type="line"/>
      <point x="1144" y="500" type="line"/>
      <point x="615" y="500" type="line"/>
      <point x="438" y="500"/>
      <point x="331" y="400"/>
      <point x="331" y="257" type="curve" smooth="yes"/>
      <point x="331" y="85"/>
      <point x="487" y="-56"/>
      <point x="886" y="-105" type="curve"/>
      <point x="858" y="-211" type="line"/>
      <point x="409" y="-164"/>
      <point x="191" y="21"/>
      <point x="191" y="272" type="curve" smooth="yes"/>
      <point x="191" y="467"/>
      <point x="336" y="619"/>
    </contour>
    <contour>
      <point x="1132" y="1166" type="line"/>
      <point x="-19" y="1166" type="line"/>
      <point x="-19" y="1278" type="line"/>
      <point x="1132" y="1278" type="line"/>
    </contour>
    <contour>
      <point x="620" y="1176" type="line"/>
      <point x="770" y="1176" type="line"/>
      <point x="770" y="845" type="line"/>
      <point x="448" y="845" type="line"/>
      <point x="305" y="845"/>
      <point x="256" y="787"/>
      <point x="256" y="711" type="curve" smooth="yes"/>
      <point x="256" y="643"/>
      <point x="299" y="592"/>
      <point x="419" y="536" type="curve"/>
      <point x="324" y="459" type="line"/>
      <point x="194" y="527"/>
      <point x="112" y="621"/>
      <point x="112" y="744" type="curve" smooth="yes"/>
      <point x="112" y="869"/>
      <point x="206" y="957"/>
      <point x="393" y="957" type="curve" smooth="yes"/>
      <point x="659" y="957" type="line"/>
      <point x="620" y="904" type="line"/>
    </contour>
  </outline>
</glyph>
<glyph name="janyadeva" format="1">
  <advance width="1421"/>
  <outline>
    <contour>
      <point x="394" y="122" type="curve" smooth="yes"/>
      <point x="615" y="-175" type="line"/>
      <point x="511" y="-225" type="line"/>
      <point x="270" y="96" type="line"/>
      <point x="341" y="48" type="line"/>
      <point x="174" y="48"/>
      <point x="86" y="120"/>
      <point x="86" y="176" type="curve" smooth="yes"/>
      <point x="86" y="225"/>
      <point x="132" y="272"/>
      <point x="193" y="272" type="curve" smooth="yes"/>
      <point x="255" y="272"/>
      <point x="324" y="217"/>
    </contour>
    <contour>
      <point x="-77" y="1166" type="line"/>
      <point x="-77" y="1278" type="line"/>
      <point x="1433" y="1278" type="line"/>
      <point x="1433" y="1166" type="line"/>
    </contour>
    <contour>
      <point x="422" y="841" type="line" smooth="yes"/>
      <point x="303" y="841"/>
      <point x="266" y="797"/>
      <point x="266" y="737" type="curve" smooth="yes"/>
      <point x="266" y="669"/>
      <point x="336" y="623"/>
      <point x="475" y="599" type="curve" smooth="yes"/>
      <point x="667" y="566"/>
      <point x="760" y="470"/>
      <point x="760" y="324" type="curve" smooth="yes"/>
      <point x="760" y="177"/>
      <point x="606" y="49"/>
      <point x="371" y="49" type="curve"/>
      <point x="340" y="155" type="line"/>
      <point x="535" y="155"/>
      <point x="627" y="247"/>
      <point x="627" y="327" type="curve" smooth="yes"/>
      <point x="627" y="415"/>
      <point x="559" y="476"/>
      <point x="387" y="509" type="curve" smooth="yes"/>
      <point x="212" y="543"/>
      <point x="122" y="638"/>
      <point x="122" y="751" type="curve" smooth="yes"/>
      <point x="122" y="873"/>
      <point x="215" y="951"/>
      <point x="424" y="951" type="curve" smooth="yes"/>
      <point x="1054" y="951" type="line"/>
      <point x="1054" y="841" type="line"/>
    </contour>
    <contour>
      <point x="1021" y="1206" type="line"/>
      <point x="1172" y="1206" type="line"/>
      <point x="1172" y="0" type="line"/>
      <point x="1021" y="0" type="line"/>
    </contour>
  </outline>
</glyph>
<glyph name="japrehalfdeva" format="1">
  <advance width="934"/>
  <outline>
    <contour>
      <point x="599" y="745" type="line"/>
      <point x="607" y="782" type="line"/>
      <point x="758" y="710"/>
      <point x="856" y="576"/>
      <point x="856" y="433" type="curve" smooth="yes"/>
      <point x="856" y="269"/>
      <point x="746" y="152"/>
      <point x="570" y="152" type="curve" smooth="yes"/>
      <point x="400" y="152"/>
      <point x="235" y="270"/>
      <point x="49" y="534" type="curve"/>
      <point x="127" y="640" type="line"/>
      <point x="292" y="393"/>
      <point x="424" y="290"/>
      <point x="534" y="290" type="curve" smooth="yes"/>
      <point x="651" y="290"/>
      <point x="718" y="354"/>
      <point x="718" y="462" type="curve" smooth="yes"/>
      <point x="718" y="596"/>
      <point x="600" y="705"/>
      <point x="415" y="759" type="curve"/>
      <point x="415" y="868" type="line"/>
      <point x="1295" y="868" type="line"/>
      <point x="1295" y="745" type="line"/>
    </contour>
    <contour>
      <point x="-54" y="1166" type="line"/>
      <point x="-54" y="1278" type="line"/>
      <point x="1297" y="1278" type="line"/>
      <point x="1297" y="1166" type="line"/>
    </contour>
  </outline>
</glyph>
<glyph name="jharaprehalfdeva" format="1">
  <advance width="962"/>
  <outline>
    <contour>
      <point x="1277" y="1166" type="line"/>
      <point x="-19" y="1166" type="line"/>
      <point x="-19" y="1278" type="line"/>
      <point x="1277" y="1278" type="line"/>
    </contour>
    <contour>
      <point x="1266" y="403" type="line"/>
      <point x="888" y="-72" type="line"/>
      <point x="792" y="1" type="line"/>
      <point x="1179" y="473" type="line"/>
    </contour>
    <contour>
      <point x="1292" y="446" type="line"/>
      <point x="1219" y="404"/>
      <point x="1103" y="374"/>
      <point x="993" y="374" type="curve" smooth="yes"/>
      <point x="908" y="374"/>
      <point x="838" y="384"/>
      <point x="795" y="394" type="curve"/>
      <point x="795" y="411"/>
      <point x="787" y="479"/>
      <point x="787" y="507" type="curve"/>
      <point x="829" y="493"/>
      <point x="906" y="485"/>
      <point x="971" y="485" type="curve" smooth="yes"/>
      <point x="1081" y="485"/>
      <point x="1194" y="516"/>
      <point x="1271" y="573" type="curve"/>
    </contour>
    <contour>
      <point x="474" y="142" type="curve" smooth="yes"/>
      <point x="730" y="-154" type="line"/>
      <point x="631" y="-222" type="line"/>
      <point x="328" y="135" type="line"/>
      <point x="456" y="71" type="line"/>
      <point x="221" y="76"/>
      <point x="141" y="159"/>
      <point x="141" y="212" type="curve" smooth="yes"/>
      <point x="141" y="259"/>
      <point x="177" y="304"/>
      <point x="243" y="304" type="curve" smooth="yes"/>
      <point x="312" y="304"/>
      <point x="384" y="247"/>
    </contour>
    <contour>
      <point x="625" y="1202" type="line"/>
      <point x="771" y="1202" type="line"/>
      <point x="771" y="839" type="line"/>
      <point x="429" y="839" type="line"/>
      <point x="277" y="839"/>
      <point x="234" y="784"/>
      <point x="235" y="712" type="curve" smooth="yes"/>
      <point x="236" y="646"/>
      <point x="283" y="598"/>
      <point x="384" y="561" type="curve"/>
      <point x="310" y="564" type="line"/>
      <point x="409" y="606"/>
      <point x="482" y="626"/>
      <point x="589" y="626" type="curve" smooth="yes"/>
      <point x="753" y="626"/>
      <point x="866" y="527"/>
      <point x="866" y="361" type="curve" smooth="yes"/>
      <point x="866" y="196"/>
      <point x="677" y="76"/>
      <point x="440" y="76" type="curve"/>
      <point x="421" y="190" type="line"/>
      <point x="606" y="190"/>
      <point x="732" y="264"/>
      <point x="732" y="370" type="curve" smooth="yes"/>
      <point x="732" y="458"/>
      <point x="669" y="507"/>
      <point x="573" y="507" type="curve" smooth="yes"/>
      <point x="487" y="507"/>
      <point x="422" y="489"/>
      <point x="349" y="456" type="curve"/>
      <point x="339" y="456" type="line"/>
      <point x="159" y="540"/>
      <point x="100" y="629"/>
      <point x="100" y="742" type="curve" smooth="yes"/>
      <point x="100" y="863"/>
      <point x="185" y="950"/>
      <point x="402" y="950" type="curve" smooth="yes"/>
      <point x="670" y="950" type="line"/>
      <point x="625" y="904" type="line"/>
    </contour>
  </outline>
</glyph>
<glyph name="kaprehalfdeva" format="1">
  <advance width="1132"/>
  <outline>
    <contour>
      <point x="826" y="564" type="curve"/>
      <point x="814" y="742" type="line"/>
      <point x="879" y="799"/>
      <point x="974" y="841"/>
      <point x="1079" y="841" type="curve" smooth="yes"/>
      <point x="1194" y="841"/>
      <point x="1297" y="809"/>
      <point x="1403" y="725" type="curve"/>
      <point x="1376" y="611" type="line"/>
      <point x="1275" y="688"/>
      <point x="1200" y="714"/>
      <point x="1101" y="714" type="curve" smooth="yes"/>
      <point x="993" y="714"/>
      <point x="899" y="660"/>
    </contour>
    <contour>
      <point x="-39" y="1166" type="line"/>
      <point x="-39" y="1278" type="line"/>
      <point x="1207" y="1278" type="line"/>
      <point x="1207" y="1166" type="line"/>
    </contour>
    <contour>
      <point x="717" y="578" type="curve"/>
      <point x="717" y="406" type="line"/>
      <point x="637" y="338"/>
      <point x="552" y="285"/>
      <point x="430" y="285" type="curve" smooth="yes"/>
      <point x="231" y="285"/>
      <point x="86" y="444"/>
      <point x="86" y="635" type="curve" smooth="yes"/>
      <point x="86" y="787"/>
      <point x="202" y="909"/>
      <point x="403" y="909" type="curve" smooth="yes"/>
      <point x="538" y="909"/>
      <point x="635" y="870"/>
      <point x="722" y="815" type="curve"/>
      <point x="722" y="698" type="line"/>
      <point x="617" y="765"/>
      <point x="536" y="790"/>
      <point x="433" y="790" type="curve" smooth="yes"/>
      <point x="289" y="790"/>
      <point x="215" y="706"/>
      <point x="215" y="603" type="curve" smooth="yes"/>
      <point x="215" y="500"/>
      <point x="294" y="409"/>
      <point x="413" y="409" type="curve" smooth="yes"/>
      <point x="537" y="410"/>
      <point x="630" y="472"/>
    </contour>
    <contour>
      <point x="694" y="1197" type="line"/>
      <point x="844" y="1197" type="line"/>
      <point x="844" y="0" type="line"/>
      <point x="694" y="0" type="line"/>
    </contour>
  </outline>
</glyph>
<glyph name="kassaraprehalfdeva" format="1">
  <advance width="800"/>
  <outline>
    <contour>
      <point x="357" y="167" type="line"/>
      <point x="467" y="212" type="line"/>
      <point x="586" y="-80" type="line"/>
      <point x="469" y="-122" type="line"/>
    </contour>
    <contour>
      <point x="388" y="679" type="curve" smooth="yes"/>
      <point x="156" y="564"/>
      <point x="87" y="482"/>
      <point x="87" y="379" type="curve" smooth="yes"/>
      <point x="87" y="273"/>
      <point x="170" y="221"/>
      <point x="265" y="221" type="curve" smooth="yes"/>
      <point x="325" y="221"/>
      <point x="365" y="229"/>
      <point x="440" y="267" type="curve"/>
      <point x="338" y="199" type="line"/>
      <point x="317" y="245"/>
      <point x="316" y="263"/>
      <point x="316" y="289" type="curve" smooth="yes"/>
      <point x="316" y="319"/>
      <point x="349" y="350"/>
      <point x="408" y="350" type="curve" smooth="yes"/>
      <point x="501" y="350"/>
      <point x="570" y="297"/>
      <point x="570" y="246" type="curve" smooth="yes"/>
      <point x="570" y="188"/>
      <point x="444" y="114"/>
      <point x="272" y="114" type="curve" smooth="yes"/>
      <point x="105" y="114"/>
      <point x="-49" y="207"/>
      <point x="-49" y="393" type="curve" smooth="yes"/>
      <point x="-49" y="530"/>
      <point x="49" y="646"/>
      <point x="297" y="765" type="curve" smooth="yes"/>
      <point x="509" y="869"/>
      <point x="575" y="952"/>
      <point x="575" y="1046" type="curve" smooth="yes"/>
      <point x="575" y="1132"/>
      <point x="507" y="1196"/>
      <point x="417" y="1196" type="curve" smooth="yes"/>
      <point x="318" y="1196"/>
      <point x="256" y="1129"/>
      <point x="256" y="1039" type="curve" smooth="yes"/>
      <point x="256" y="876"/>
      <point x="528" y="755"/>
      <point x="861" y="755" type="curve" smooth="yes"/>
      <point x="938" y="755"/>
      <point x="1010" y="765"/>
      <point x="1086" y="786" type="curve"/>
      <point x="1096" y="667" type="line"/>
      <point x="1023" y="645"/>
      <point x="952" y="635"/>
      <point x="867" y="635" type="curve" smooth="yes"/>
      <point x="447" y="635"/>
      <point x="126" y="811"/>
      <point x="126" y="1063" type="curve" smooth="yes"/>
      <point x="126" y="1199"/>
      <point x="233" y="1308"/>
      <point x="403" y="1308" type="curve" smooth="yes"/>
      <point x="594" y="1308"/>
      <point x="698" y="1188"/>
      <point x="698" y="1043" type="curve" smooth="yes"/>
      <point x="698" y="905"/>
      <point x="600" y="785"/>
    </contour>
    <contour>
      <point x="1064" y="616" type="line"/>
      <point x="746" y="140" type="line"/>
      <point x="639" y="207" type="line"/>
      <point x="966" y="682" type="line"/>
    </contour>
  </outline>
</glyph>
<glyph name="khanuktaradeva" format="1">
  <advance width="1795"/>
  <outline>
    <contour>
      <point x="0" y="0" type="line"/>
      <point x="1795" y="0" type="line"/>
      <point x="1795" y="20" type="line"/>
      <point x="0" y="20" type="line"/>
    </contour>
  </outline>
</glyph>
<glyph name="lanuktaradevaMAR" format="1">
  <advance width="1538"/>
  <outline>
    <component base="ladevaMAR"/>
    <component base="vattudeva" xOffset="1393"/>
    <component base="nuktadeva" xOffset="881" yOffset="135"/>
    <contour>
      <point x="1009" y="1274" type="move" name="mark0"/>
    </contour>
  </outline>
</glyph>
<glyph name="laradeva" format="1">
  <advance width="1399"/>
  <outline>
    <contour>
      <point x="1126" y="320" type="line"/>
      <point x="620" y="-96" type="line"/>
      <point x="538" y="-4" type="line"/>
      <point x="1053" y="415" type="line"/>
    </contour>
    <contour>
      <point x="1071" y="939" type="line"/>
      <point x="1071" y="763" type="line"/>
      <point x="626" y="362" type="line"/>
      <point x="543" y="457" type="line"/>
    </contour>
    <contour>
      <point x="850" y="673" type="curve"/>
      <point x="765" y="581" type="line"/>
      <point x="645" y="717"/>
      <point x="560" y="762"/>
      <point x="442" y="762" type="curve" smooth="yes"/>
      <point x="320" y="762"/>
      <point x="229" y="660"/>
      <point x="228" y="546" type="curve" smooth="yes"/>
      <point x="226" y="411"/>
      <point x="298" y="300"/>
      <point x="484" y="129" type="curve"/>
      <point x="382" y="58" type="line"/>
      <point x="196" y="233"/>
      <point x="92" y="383"/>
      <point x="92" y="575" type="curve" smooth="yes"/>
      <point x="92" y="747"/>
      <point x="223" y="896"/>
      <point x="433" y="896" type="curve" smooth="yes"/>
      <point x="601" y="896"/>
      <point x="723" y="810"/>
    </contour>
    <contour>
      <point x="-19" y="1166" type="line"/>
      <point x="-19" y="1278" type="line"/>
      <point x="1419" y="1278" type="line"/>
      <point x="1419" y="1166" type="line"/>
    </contour>
    <contour>
      <point x="1021" y="1197" type="line"/>
      <point x="1172" y="1197" type="line"/>
      <point x="1172" y="0" type="line"/>
      <point x="1021" y="0" type="line"/>
    </contour>
  </outline>
</glyph>
<glyph name="maprehalfdeva" format="1">
  <advance width="717"/>
  <outline>
    <contour>
      <point x="-25" y="1166" type="line"/>
      <point x="-25" y="1278" type="line"/>
      <point x="957" y="1278" type="line"/>
      <point x="957" y="1166" type="line"/>
    </contour>
    <contour>
      <point x="238" y="1206" type="line"/>
      <point x="388" y="1206" type="line"/>
      <point x="388" y="612" type="line"/>
      <point x="356" y="641" type="line"/>
      <point x="958" y="641" type="line"/>
      <point x="958" y="519" type="line"/>
      <point x="353" y="519" type="line"/>
      <point x="388" y="547" type="line"/>
      <point x="388" y="408" type="line"/>
      <point x="388" y="365"/>
      <point x="373" y="345"/>
      <point x="330" y="345" type="curve" smooth="yes"/>
      <point x="259" y="345"/>
      <point x="104" y="517"/>
      <point x="104" y="581" type="curve" smooth="yes"/>
      <point x="104" y="619"/>
      <point x="123" y="640"/>
      <point x="166" y="640" type="curve" smooth="yes"/>
      <point x="267" y="640" type="line"/>
      <point x="238" y="611" type="line"/>
    </contour>
  </outline>
</glyph>
<glyph name="maraprehalfdeva" format="1">
  <advance width="717"/>
  <outline>
    <contour>
      <point x="942" y="441" type="line"/>
      <point x="350" y="-51" type="line"/>
      <point x="262" y="45" type="line"/>
      <point x="864" y="539" type="line"/>
    </contour>
    <contour>
      <point x="-25" y="1166" type="line"/>
      <point x="-25" y="1278" type="line"/>
      <point x="957" y="1278" type="line"/>
      <point x="957" y="1166" type="line"/>
    </contour>
    <contour>
      <point x="238" y="1206" type="line"/>
      <point x="388" y="1206" type="line"/>
      <point x="388" y="619" type="line"/>
      <point x="356" y="647" type="line"/>
      <point x="958" y="647" type="line"/>
      <point x="958" y="526" type="line"/>
      <point x="353" y="526" type="line"/>
      <point x="388" y="553" type="line"/>
      <point x="388" y="415" type="line"/>
      <point x="388" y="372"/>
      <point x="373" y="351"/>
      <point x="330" y="351" type="curve" smooth="yes"/>
      <point x="259" y="351"/>
      <point x="104" y="523"/>
      <point x="104" y="588" type="curve" smooth="yes"/>
      <point x="104" y="626"/>
      <point x="123" y="646"/>
      <point x="166" y="646" type="curve" smooth="yes"/>
      <point x="267" y="646" type="line"/>
      <point x="238" y="617" type="line"/>
    </contour>
  </outline>
</glyph>
<glyph name="naprehalfdeva" format="1">
  <advance width="602"/>
  <outline>
    <contour>
      <point x="813" y="789" type="line"/>
      <point x="813" y="664" type="line"/>
      <point x="285" y="664" type="line"/>
      <point x="335" y="715" type="line"/>
      <point x="335" y="473" type="line"/>
      <point x="335" y="426"/>
      <point x="314" y="401"/>
      <point x="271" y="401" type="curve" smooth="yes"/>
      <point x="220" y="401"/>
      <point x="134" y="591"/>
      <point x="134" y="710" type="curve" smooth="yes"/>
      <point x="134" y="762"/>
      <point x="157" y="789"/>
      <point x="224" y="789" type="curve" smooth="yes"/>
    </contour>
    <contour>
      <point x="-33" y="1166" type="line"/>
      <point x="-33" y="1278" type="line"/>
      <point x="813" y="1278" type="line"/>
      <point x="813" y="1166" type="line"/>
    </contour>
  </outline>
</glyph>
<glyph name="nganuktaraprehalfdeva" format="1">
  <advance width="1539"/>
  <outline>
    <contour>
      <point x="0" y="0" type="line"/>
      <point x="1539" y="0" type="line"/>
      <point x="1539" y="20" type="line"/>
      <point x="0" y="20" type="line"/>
    </contour>
  </outline>
</glyph>
<glyph name="rephdeva" format="1">
  <advance width="-1"/>
  <outline>
    <contour>
      <point x="-363" y="1244" type="line"/>
      <point x="-420" y="1336"/>
      <point x="-466" y="1443"/>
      <point x="-466" y="1542" type="curve" smooth="yes"/>
      <point x="-466" y="1666"/>
      <point x="-372" y="1773"/>
      <point x="-201" y="1773" type="curve" smooth="yes"/>
      <point x="-137" y="1773"/>
      <point x="-97" y="1765"/>
      <point x="-52" y="1754" type="curve"/>
      <point x="-61" y="1653" type="line"/>
      <point x="-100" y="1661"/>
      <point x="-132" y="1666"/>
      <point x="-176" y="1666" type="curve" smooth="yes"/>
      <point x="-281" y="1666"/>
      <point x="-335" y="1600"/>
      <point x="-335" y="1511" type="curve" smooth="yes"/>
      <point x="-335" y="1427"/>
      <point x="-297" y="1345"/>
      <point x="-236" y="1244" type="curve"/>
    </contour>
    <contour>
      <point x="-424" y="1282" type="move" name="_mark0"/>
    </contour>
    <contour>
      <point x="49" y="8" type="move" name="x17"/>
    </contour>
  </outline>
</glyph>
<glyph name="rvocalicvowelsignlowdeva" format="1">
  <advance width="22"/>
  <outline>
    <contour>
      <point x="58" y="-772" type="line"/>
      <point x="-28" y="-812"/>
      <point x="-118" y="-835"/>
      <point x="-213" y="-835" type="curve" smooth="yes"/>
      <point x="-372" y="-835"/>
      <point x="-502" y="-756"/>
      <point x="-517" y="-605" type="curve" smooth="yes"/>
      <point x="-517" y="-471"/>
      <point x="-396" y="-402"/>
      <point x="-276" y="-390" type="curve"/>
      <point x="-294" y="-376"/>
      <point x="-297" y="-422"/>
      <point x="-297" y="-405" type="curve"/>
      <point x="-391" y="-376"/>
      <point x="-438" y="-388"/>
      <point x="-365" y="-490" type="curve" smooth="yes"/>
      <point x="-363" y="-599"/>
      <point x="-279" y="-656"/>
      <point x="-195" y="-673" type="curve" smooth="yes"/>
      <point x="-193" y="-675"/>
      <point x="-176" y="-680"/>
      <point x="-146" y="-686" type="curve"/>
      <point x="-146" y="-699"/>
      <point x="-140" y="-705"/>
      <point x="-127" y="-705" type="curve"/>
      <point x="-85" y="-698"/>
      <point x="-41" y="-681"/>
      <point x="12" y="-656" type="curve"/>
    </contour>
    <contour>
      <point x="-365" y="-22" type="move" name="_mark0"/>
    </contour>
  </outline>
</glyph>
<glyph name="saprehalfdeva" format="1">
  <advance width="878"/>
  <outline>
    <contour>
      <point x="726" y="63" type="line"/>
      <point x="620" y="-12" type="line"/>
      <point x="136" y="652" type="line"/>
      <point x="92" y="710"/>
      <point x="68" y="752"/>
      <point x="68" y="786" type="curve" smooth="yes"/>
      <point x="68" y="818"/>
      <point x="96" y="843"/>
      <point x="130" y="843" type="curve" smooth="yes"/>
      <point x="166" y="843"/>
      <point x="203" y="795"/>
      <point x="246" y="735" type="curve" smooth="yes"/>
      <point x="344" y="598" type="line"/>
      <point x="348" y="583" type="line"/>
    </contour>
    <contour>
      <point x="243" y="613" type="line"/>
      <point x="419" y="654"/>
      <point x="498" y="762"/>
      <point x="498" y="936" type="curve" smooth="yes"/>
      <point x="498" y="1203" type="line"/>
      <point x="648" y="1203" type="line"/>
      <point x="648" y="913" type="line"/>
      <point x="648" y="736"/>
      <point x="571" y="565"/>
      <point x="328" y="499" type="curve"/>
    </contour>
    <contour>
      <point x="-24" y="1166" type="line"/>
      <point x="-24" y="1278" type="line"/>
      <point x="1168" y="1278" type="line"/>
      <point x="1168" y="1166" type="line"/>
    </contour>
    <contour>
      <point x="488" y="603" type="curve"/>
      <point x="538" y="714" type="line"/>
      <point x="647" y="667"/>
      <point x="752" y="650"/>
      <point x="851" y="650" type="curve" smooth="yes"/>
      <point x="953" y="650"/>
      <point x="1020" y="660"/>
      <point x="1105" y="683" type="curve"/>
      <point x="1115" y="550" type="line"/>
      <point x="1050" y="533"/>
      <point x="968" y="522"/>
      <point x="873" y="522" type="curve" smooth="yes"/>
      <point x="755" y="522"/>
      <point x="629" y="545"/>
    </contour>
  </outline>
</glyph>
<glyph name="saradeva" format="1">
  <advance width="1509"/>
  <outline>
    <contour>
      <point x="1178" y="566" type="line"/>
      <point x="847" y="130" type="line"/>
      <point x="743" y="207" type="line"/>
      <point x="1082" y="633" type="line"/>
    </contour>
    <contour>
      <point x="692" y="58" type="line"/>
      <point x="589" y="-12" type="line"/>
      <point x="131" y="650" type="line"/>
      <point x="90" y="711"/>
      <point x="65" y="752"/>
      <point x="65" y="786" type="curve" smooth="yes"/>
      <point x="65" y="819"/>
      <point x="92" y="843"/>
      <point x="126" y="843" type="curve" smooth="yes"/>
      <point x="163" y="843"/>
      <point x="201" y="791"/>
      <point x="240" y="728" type="curve" smooth="yes"/>
      <point x="335" y="591" type="line"/>
      <point x="336" y="576" type="line"/>
    </contour>
    <contour>
      <point x="240" y="613" type="line"/>
      <point x="416" y="654"/>
      <point x="495" y="762"/>
      <point x="495" y="936" type="curve" smooth="yes"/>
      <point x="495" y="1203" type="line"/>
      <point x="645" y="1203" type="line"/>
      <point x="645" y="913" type="line"/>
      <point x="645" y="736"/>
      <point x="569" y="565"/>
      <point x="325" y="499" type="curve"/>
    </contour>
    <contour>
      <point x="-38" y="1166" type="line"/>
      <point x="-38" y="1278" type="line"/>
      <point x="1528" y="1278" type="line"/>
      <point x="1528" y="1166" type="line"/>
    </contour>
    <contour>
      <point x="485" y="608" type="curve"/>
      <point x="535" y="718" type="line"/>
      <point x="647" y="670"/>
      <point x="758" y="654"/>
      <point x="845" y="654" type="curve" smooth="yes"/>
      <point x="945" y="654"/>
      <point x="1081" y="671"/>
      <point x="1154" y="698" type="curve"/>
      <point x="1154" y="566" type="line"/>
      <point x="1102" y="546"/>
      <point x="986" y="528"/>
      <point x="876" y="528" type="curve" smooth="yes"/>
      <point x="766" y="528"/>
      <point x="625" y="549"/>
    </contour>
    <contour>
      <point x="1130" y="1197" type="line"/>
      <point x="1281" y="1197" type="line"/>
      <point x="1281" y="0" type="line"/>
      <point x="1130" y="0" type="line"/>
    </contour>
  </outline>
</glyph>
<glyph name="shacadeva" format="1">
  <advance width="1362"/>
  <outline>
    <contour>
      <point x="286" y="114" type="line"/>
      <point x="223" y="207" type="line"/>
      <point x="687" y="483" type="line"/>
      <point x="749" y="391" type="line"/>
    </contour>
    <contour>
      <point x="981" y="354" type="curve"/>
      <point x="1049" y="217" type="line"/>
      <point x="1028" y="66"/>
      <point x="894" y="-60"/>
      <point x="728" y="-60" type="curve" smooth="yes"/>
      <point x="568" y="-60"/>
      <point x="471" y="55"/>
      <point x="471" y="192" type="curve" smooth="yes"/>
      <point x="471" y="276"/>
      <point x="525" y="365"/>
      <point x="636" y="427" type="curve"/>
      <point x="701" y="363" type="line"/>
      <point x="628" y="320"/>
      <point x="590" y="261"/>
      <point x="590" y="189" type="curve" smooth="yes"/>
      <point x="591" y="117"/>
      <point x="635" y="50"/>
      <point x="730" y="50" type="curve" smooth="yes"/>
      <point x="837" y="50"/>
      <point x="981" y="161"/>
    </contour>
    <contour>
      <point x="87" y="489" type="line"/>
      <point x="17" y="592" type="line"/>
      <point x="309" y="758" type="line"/>
      <point x="492" y="862"/>
      <point x="576" y="947"/>
      <point x="576" y="1044" type="curve" smooth="yes"/>
      <point x="576" y="1130"/>
      <point x="509" y="1196"/>
      <point x="419" y="1196" type="curve" smooth="yes"/>
      <point x="319" y="1196"/>
      <point x="258" y="1129"/>
      <point x="258" y="1041" type="curve" smooth="yes"/>
      <point x="258" y="892"/>
      <point x="471" y="755"/>
      <point x="1051" y="736" type="curve"/>
      <point x="1015" y="623" type="line"/>
      <point x="353" y="644"/>
      <point x="126" y="846"/>
      <point x="126" y="1063" type="curve" smooth="yes"/>
      <point x="126" y="1196"/>
      <point x="234" y="1309"/>
      <point x="404" y="1309" type="curve" smooth="yes"/>
      <point x="589" y="1309"/>
      <point x="700" y="1190"/>
      <point x="700" y="1037" type="curve" smooth="yes"/>
      <point x="700" y="894"/>
      <point x="590" y="778"/>
      <point x="383" y="661" type="curve" smooth="yes"/>
    </contour>
    <contour>
      <point x="969" y="1197" type="line"/>
      <point x="1120" y="1197" type="line"/>
      <point x="1120" y="-205" type="line"/>
      <point x="969" y="-205" type="line"/>
    </contour>
    <contour>
      <point x="1374" y="1166" type="line"/>
      <point x="791" y="1166" type="line"/>
      <point x="791" y="1278" type="line"/>
      <point x="1374" y="1278" type="line"/>
    </contour>
  </outline>
</glyph>
<glyph name="shaladeva" format="1">
  <advance width="2127"/>
  <outline>
    <contour>
      <point x="109" y="489" type="line"/>
      <point x="39" y="592" type="line"/>
      <point x="331" y="758" type="line"/>
      <point x="514" y="862"/>
      <point x="598" y="947"/>
      <point x="598" y="1044" type="curve" smooth="yes"/>
      <point x="598" y="1130"/>
      <point x="530" y="1196"/>
      <point x="441" y="1196" type="curve" smooth="yes"/>
      <point x="341" y="1196"/>
      <point x="279" y="1129"/>
      <point x="279" y="1041" type="curve" smooth="yes"/>
      <point x="279" y="879"/>
      <point x="543" y="760"/>
      <point x="975" y="741" type="curve"/>
      <point x="939" y="628" type="line"/>
      <point x="425" y="649"/>
      <point x="148" y="831"/>
      <point x="148" y="1063" type="curve" smooth="yes"/>
      <point x="148" y="1196"/>
      <point x="255" y="1309"/>
      <point x="425" y="1309" type="curve" smooth="yes"/>
      <point x="611" y="1309"/>
      <point x="721" y="1190"/>
      <point x="721" y="1037" type="curve" smooth="yes"/>
      <point x="721" y="894"/>
      <point x="611" y="778"/>
      <point x="405" y="661" type="curve" smooth="yes"/>
    </contour>
    <contour>
      <point x="1790" y="934" type="line"/>
      <point x="1790" y="752" type="line"/>
      <point x="1356" y="345" type="line"/>
      <point x="1265" y="440" type="line"/>
    </contour>
    <contour>
      <point x="1570" y="659" type="curve"/>
      <point x="1484" y="568" type="line"/>
      <point x="1364" y="704"/>
      <point x="1279" y="748"/>
      <point x="1162" y="748" type="curve" smooth="yes"/>
      <point x="1040" y="748"/>
      <point x="949" y="646"/>
      <point x="947" y="533" type="curve" smooth="yes"/>
      <point x="946" y="397"/>
      <point x="1022" y="280"/>
      <point x="1207" y="109" type="curve"/>
      <point x="1106" y="38" type="line"/>
      <point x="920" y="213"/>
      <point x="811" y="370"/>
      <point x="811" y="562" type="curve" smooth="yes"/>
      <point x="811" y="733"/>
      <point x="943" y="883"/>
      <point x="1152" y="883" type="curve" smooth="yes"/>
      <point x="1320" y="883"/>
      <point x="1442" y="797"/>
    </contour>
    <contour>
      <point x="794" y="1166" type="line"/>
      <point x="794" y="1278" type="line"/>
      <point x="2138" y="1278" type="line"/>
      <point x="2138" y="1166" type="line"/>
    </contour>
    <contour>
      <point x="1741" y="1197" type="line"/>
      <point x="1891" y="1197" type="line"/>
      <point x="1891" y="0" type="line"/>
      <point x="1741" y="0" type="line"/>
    </contour>
  </outline>
</glyph>
<glyph name="shanadeva" format="1">
  <advance width="1362"/>
  <outline>
    <contour>
      <point x="991" y="656" type="line"/>
      <point x="1054" y="556" type="line"/>
      <point x="494" y="167" type="line"/>
      <point x="503" y="236" type="line"/>
      <point x="642" y="38" type="line"/>
      <point x="652" y="21"/>
      <point x="658" y="7"/>
      <point x="658" y="-9" type="curve" smooth="yes"/>
      <point x="658" y="-34"/>
      <point x="642" y="-57"/>
      <point x="607" y="-57" type="curve" smooth="yes"/>
      <point x="535" y="-57"/>
      <point x="325" y="97"/>
      <point x="325" y="179" type="curve" smooth="yes"/>
      <point x="325" y="207"/>
      <point x="339" y="231"/>
      <point x="376" y="253" type="curve" smooth="yes"/>
    </contour>
    <contour>
      <point x="87" y="489" type="line"/>
      <point x="17" y="592" type="line"/>
      <point x="309" y="758" type="line"/>
      <point x="492" y="862"/>
      <point x="576" y="947"/>
      <point x="576" y="1044" type="curve" smooth="yes"/>
      <point x="576" y="1130"/>
      <point x="509" y="1196"/>
      <point x="419" y="1196" type="curve" smooth="yes"/>
      <point x="319" y="1196"/>
      <point x="258" y="1129"/>
      <point x="258" y="1041" type="curve" smooth="yes"/>
      <point x="258" y="892"/>
      <point x="471" y="755"/>
      <point x="1051" y="736" type="curve"/>
      <point x="1015" y="623" type="line"/>
      <point x="353" y="644"/>
      <point x="126" y="846"/>
      <point x="126" y="1063" type="curve" smooth="yes"/>
      <point x="126" y="1196"/>
      <point x="234" y="1309"/>
      <point x="404" y="1309" type="curve" smooth="yes"/>
      <point x="589" y="1309"/>
      <point x="700" y="1190"/>
      <point x="700" y="1037" type="curve" smooth="yes"/>
      <point x="700" y="894"/>
      <point x="590" y="778"/>
      <point x="383" y="661" type="curve" smooth="yes"/>
    </contour>
    <contour>
      <point x="969" y="1197" type="line"/>
      <point x="1120" y="1197" type="line"/>
      <point x="1120" y="0" type="line"/>
      <point x="969" y="0" type="line"/>
    </contour>
    <contour>
      <point x="1374" y="1166" type="line"/>
      <point x="791" y="1166" type="line"/>
      <point x="791" y="1278" type="line"/>
      <point x="1374" y="1278" type="line"/>
    </contour>
  </outline>
</glyph>
<glyph name="sharaprehalfdeva" format="1">
  <advance width="968"/>
  <outline>
    <contour>
      <point x="1160" y="1166" type="line"/>
      <point x="791" y="1166" type="line"/>
      <point x="791" y="1278" type="line"/>
      <point x="1160" y="1278" type="line"/>
    </contour>
    <contour>
      <point x="1043" y="623" type="line"/>
      <point x="345" y="642"/>
      <point x="126" y="846"/>
      <point x="126" y="1063" type="curve" smooth="yes"/>
      <point x="126" y="1196"/>
      <point x="234" y="1309"/>
      <point x="404" y="1309" type="curve" smooth="yes"/>
      <point x="589" y="1309"/>
      <point x="700" y="1190"/>
      <point x="700" y="1037" type="curve" smooth="yes"/>
      <point x="700" y="894"/>
      <point x="590" y="778"/>
      <point x="383" y="661" type="curve" smooth="yes"/>
      <point x="87" y="489" type="line"/>
      <point x="17" y="592" type="line"/>
      <point x="309" y="758" type="line"/>
      <point x="492" y="862"/>
      <point x="576" y="947"/>
      <point x="576" y="1044" type="curve" smooth="yes"/>
      <point x="576" y="1130"/>
      <point x="509" y="1196"/>
      <point x="419" y="1196" type="curve" smooth="yes"/>
      <point x="319" y="1196"/>
      <point x="258" y="1129"/>
      <point x="258" y="1041" type="curve" smooth="yes"/>
      <point x="258" y="892"/>
      <point x="466" y="755"/>
      <point x="1050" y="740" type="curve"/>
      <point x="1096" y="597" type="line"/>
      <point x="386" y="90" type="line"/>
      <point x="308" y="192" type="line"/>
      <point x="1023" y="690" type="line"/>
    </contour>
  </outline>
</glyph>
<glyph name="ssatthadeva" format="1">
  <advance width="1153"/>
  <outline>
    <contour>
      <point x="860" y="151" type="curve" smooth="yes"/>
      <point x="860" y="260"/>
      <point x="788" y="349"/>
      <point x="674" y="393" type="curve"/>
      <point x="587" y="393" type="line"/>
      <point x="358" y="393"/>
      <point x="264" y="275"/>
      <point x="264" y="139" type="curve" smooth="yes"/>
      <point x="264" y="-4"/>
      <point x="382" y="-93"/>
      <point x="555" y="-93" type="curve" smooth="yes"/>
      <point x="764" y="-93"/>
      <point x="860" y="24"/>
    </contour>
    <contour>
      <point x="705" y="501" type="line"/>
      <point x="887" y="433"/>
      <point x="992" y="307"/>
      <point x="992" y="137" type="curve" smooth="yes"/>
      <point x="992" y="-45"/>
      <point x="848" y="-210"/>
      <point x="573" y="-210" type="curve" smooth="yes"/>
      <point x="293" y="-210"/>
      <point x="127" y="-51"/>
      <point x="127" y="158" type="curve" smooth="yes"/>
      <point x="127" y="348"/>
      <point x="274" y="504"/>
      <point x="532" y="504" type="curve" smooth="yes"/>
    </contour>
    <contour>
      <point x="826" y="577" type="line"/>
      <point x="747" y="520" type="line"/>
      <point x="230" y="1151" type="line"/>
      <point x="308" y="1208" type="line"/>
    </contour>
    <contour>
      <point x="771" y="742" type="curve" smooth="yes"/>
      <point x="771" y="1197" type="line"/>
      <point x="921" y="1197" type="line"/>
      <point x="921" y="719" type="line"/>
      <point x="921" y="538"/>
      <point x="808" y="392"/>
      <point x="550" y="392" type="curve" smooth="yes"/>
      <point x="317" y="392"/>
      <point x="163" y="534"/>
      <point x="163" y="764" type="curve" smooth="yes"/>
      <point x="163" y="1224" type="line"/>
      <point x="313" y="1224" type="line"/>
      <point x="313" y="728" type="line"/>
      <point x="313" y="589"/>
      <point x="388" y="514"/>
      <point x="523" y="514" type="curve" smooth="yes"/>
      <point x="696" y="514"/>
      <point x="771" y="590"/>
    </contour>
    <contour>
      <point x="1170" y="1166" type="line"/>
      <point x="-31" y="1166" type="line"/>
      <point x="-31" y="1278" type="line"/>
      <point x="1170" y="1278" type="line"/>
    </contour>
    <contour>
      <point x="695" y="-22" type="move" name="mark0"/>
    </contour>
  </outline>
</glyph>
<glyph name="taprehalfdeva" format="1">
  <advance width="685"/>
  <outline>
    <contour>
      <point x="907" y="889" type="line"/>
      <point x="907" y="761" type="line"/>
      <point x="523" y="761" type="line"/>
      <point x="363" y="761"/>
      <point x="270" y="665"/>
      <point x="270" y="524" type="curve" smooth="yes"/>
      <point x="270" y="394"/>
      <point x="326" y="250"/>
      <point x="484" y="17" type="curve"/>
      <point x="364" y="-23" type="line"/>
      <point x="205" y="207"/>
      <point x="130" y="393"/>
      <point x="130" y="558" type="curve" smooth="yes"/>
      <point x="130" y="748"/>
      <point x="246" y="889"/>
      <point x="483" y="889" type="curve" smooth="yes"/>
    </contour>
    <contour>
      <point x="-40" y="1166" type="line"/>
      <point x="-40" y="1278" type="line"/>
      <point x="934" y="1278" type="line"/>
      <point x="934" y="1166" type="line"/>
    </contour>
  </outline>
</glyph>
<glyph name="ttanuktaraprehalfdeva" format="1">
  <advance width="1000"/>
  <outline>
    <contour>
      <point x="0" y="0" type="line"/>
      <point x="1000" y="0" type="line"/>
      <point x="1000" y="20" type="line"/>
      <point x="0" y="20" type="line"/>
    </contour>
  </outline>
</glyph>
<glyph name="ttattauudeva" format="1">
  <advance width="1003"/>
  <outline>
    <component base="ttattadeva"/>
    <component base="uuvowelsignlowdeva" xOffset="877" yOffset="-348"/>
    <contour>
      <point x="626" y="1252" type="move" name="mark0"/>
    </contour>
  </outline>
</glyph>
<glyph name="ttatthadeva" format="1">
  <advance width="1003"/>
  <outline>
    <contour>
      <point x="826" y="-232" type="curve" smooth="yes"/>
      <point x="826" y="-136"/>
      <point x="759" y="-50"/>
      <point x="664" y="-18" type="curve"/>
      <point x="540" y="-18" type="line"/>
      <point x="340" y="-18"/>
      <point x="251" y="-106"/>
      <point x="251" y="-238" type="curve" smooth="yes"/>
      <point x="251" y="-359"/>
      <point x="355" y="-460"/>
      <point x="543" y="-460" type="curve" smooth="yes"/>
      <point x="714" y="-460"/>
      <point x="826" y="-365"/>
    </contour>
    <contour>
      <point x="595" y="308" type="line"/>
      <point x="731" y="308" type="line"/>
      <point x="731" y="41" type="line"/>
      <point x="697" y="82" type="line"/>
      <point x="845" y="33"/>
      <point x="951" y="-90"/>
      <point x="951" y="-245" type="curve" smooth="yes"/>
      <point x="951" y="-423"/>
      <point x="807" y="-565"/>
      <point x="569" y="-565" type="curve" smooth="yes"/>
      <point x="264" y="-565"/>
      <point x="121" y="-400"/>
      <point x="121" y="-216" type="curve" smooth="yes"/>
      <point x="121" y="-46"/>
      <point x="256" y="88"/>
      <point x="479" y="88" type="curve" smooth="yes"/>
      <point x="633" y="88" type="line"/>
      <point x="595" y="59" type="line"/>
    </contour>
    <contour>
      <point x="1045" y="1166" type="line"/>
      <point x="-30" y="1166" type="line"/>
      <point x="-30" y="1278" type="line"/>
      <point x="1045" y="1278" type="line"/>
    </contour>
    <contour>
      <point x="633" y="1213" type="line"/>
      <point x="776" y="1213" type="line"/>
      <point x="776" y="843" type="line"/>
      <point x="545" y="843" type="line"/>
      <point x="341" y="843"/>
      <point x="250" y="751"/>
      <point x="250" y="611" type="curve" smooth="yes"/>
      <point x="250" y="477"/>
      <point x="382" y="377"/>
      <point x="542" y="377" type="curve" smooth="yes"/>
      <point x="651" y="377"/>
      <point x="725" y="392"/>
      <point x="837" y="434" type="curve"/>
      <point x="873" y="319" type="line"/>
      <point x="747" y="275"/>
      <point x="679" y="262"/>
      <point x="564" y="262" type="curve" smooth="yes"/>
      <point x="287" y="262"/>
      <point x="110" y="429"/>
      <point x="110" y="633" type="curve" smooth="yes"/>
      <point x="110" y="808"/>
      <point x="240" y="949"/>
      <point x="490" y="949" type="curve" smooth="yes"/>
      <point x="672" y="949" type="line"/>
      <point x="633" y="919" type="line"/>
    </contour>
    <contour>
      <point x="626" y="1252" type="move" name="mark0"/>
    </contour>
  </outline>
</glyph>
<glyph name="varaprehalfdeva" format="1">
  <advance width="684"/>
  <outline>
    <contour>
      <point x="841" y="382" type="line"/>
      <point x="206" y="-40" type="line"/>
      <point x="122" y="58" type="line"/>
      <point x="763" y="481" type="line"/>
    </contour>
    <component base="vaprehalfdeva"/>
  </outline>
</glyph>
<glyph name="yaprehalfdeva" format="1">
  <advance width="736"/>
  <outline>
    <contour>
      <point x="-25" y="1166" type="line"/>
      <point x="-25" y="1278" type="line"/>
      <point x="1021" y="1278" type="line"/>
      <point x="1021" y="1166" type="line"/>
    </contour>
    <contour>
      <point x="352" y="1191" type="line"/>
      <point x="502" y="1191" type="line"/>
      <point x="502" y="959" type="line"/>
      <point x="502" y="779"/>
      <point x="407" y="631"/>
      <point x="194" y="562" type="curve"/>
      <point x="197" y="615" type="line"/>
      <point x="287" y="488"/>
      <point x="394" y="407"/>
      <point x="529" y="407" type="curve" smooth="yes"/>
      <point x="680" y="407"/>
      <point x="803" y="473"/>
      <point x="945" y="635" type="curve"/>
      <point x="1024" y="513" type="line"/>
      <point x="872" y="360"/>
      <point x="718" y="282"/>
      <point x="556" y="282" type="curve" smooth="yes"/>
      <point x="362" y="282"/>
      <point x="164" y="411"/>
      <point x="56" y="627" type="curve"/>
      <point x="56" y="632" type="line"/>
      <point x="295" y="724"/>
      <point x="352" y="833"/>
      <point x="352" y="981" type="curve" smooth="yes"/>
    </contour>
  </outline>
</glyph>
